<svg xmlns="http://www.w3.org/2000/svg" width="1200" height="630" viewBox="0 0 1200 630" role="img" aria-labelledby="title desc">
  <title id="title">Lumentum AI optics cover</title>
  <desc id="desc">Optical links and market index bars representing AI data center photonics.</desc>
  <defs>
    <linearGradient id="bg" x1="0" y1="0" x2="1" y2="1">
      <stop offset="0" stop-color="#0f172a"/>
      <stop offset="0.48" stop-color="#164e63"/>
      <stop offset="1" stop-color="#f97316"/>
    </linearGradient>
    <radialGradient id="glow" cx="50%" cy="45%" r="45%">
      <stop offset="0" stop-color="#67e8f9" stop-opacity="0.95"/>
      <stop offset="1" stop-color="#67e8f9" stop-opacity="0"/>
    </radialGradient>
  </defs>
  <rect width="1200" height="630" fill="url(#bg)"/>
  <circle cx="610" cy="315" r="255" fill="url(#glow)" opacity="0.35"/>
  <g stroke="#cffafe" stroke-width="7" stroke-linecap="round" opacity="0.86">
    <path d="M156 170C318 250 404 322 580 322S860 225 1040 160"/>
    <path d="M152 462C312 378 416 328 580 328s286 60 464 156"/>
    <path d="M172 315h860"/>
  </g>
  <g fill="#082f49" stroke="#cffafe" stroke-width="5">
    <circle cx="180" cy="170" r="34"/>
    <circle cx="180" cy="462" r="34"/>
    <circle cx="580" cy="322" r="46"/>
    <circle cx="1038" cy="160" r="34"/>
    <circle cx="1038" cy="484" r="34"/>
  </g>
  <g fill="#f8fafc" font-family="Arial, Helvetica, sans-serif" font-weight="700">
    <text x="110" y="95" font-size="28">AI DATA CENTER OPTICS</text>
    <text x="110" y="558" font-size="62">LUMENTUM</text>
    <text x="730" y="558" font-size="34" fill="#fed7aa">NASDAQ-100 / MAY 18</text>
  </g>
  <g transform="translate(746 250)">
    <rect x="0" y="120" width="48" height="116" rx="10" fill="#fed7aa"/>
    <rect x="72" y="70" width="48" height="166" rx="10" fill="#67e8f9"/>
    <rect x="144" y="20" width="48" height="216" rx="10" fill="#f8fafc"/>
    <text x="0" y="-18" fill="#f8fafc" font-family="Arial, Helvetica, sans-serif" font-size="24" font-weight="700">INDEX ENTRY</text>
  </g>
</svg>
