<svg xmlns="http://www.w3.org/2000/svg" width="1200" height="630" viewBox="0 0 1200 630" role="img" aria-labelledby="title desc">
  <title id="title">Microsoft EY enterprise AI execution cover</title>
  <desc id="desc">Abstract enterprise AI operating model with Microsoft and EY blocks, forward deployed engineers, governance rails, and production metrics.</desc>
  <defs>
    <linearGradient id="bg" x1="0" y1="0" x2="1" y2="1">
      <stop offset="0%" stop-color="#052e2b"/>
      <stop offset="48%" stop-color="#0f766e"/>
      <stop offset="100%" stop-color="#1e293b"/>
    </linearGradient>
    <linearGradient id="panel" x1="0" y1="0" x2="1" y2="1">
      <stop offset="0%" stop-color="#ffffff" stop-opacity="0.22"/>
      <stop offset="100%" stop-color="#ffffff" stop-opacity="0.06"/>
    </linearGradient>
  </defs>
  <rect width="1200" height="630" fill="url(#bg)"/>
  <rect x="74" y="70" width="1052" height="488" rx="30" fill="#020617" opacity="0.42"/>
  <rect x="118" y="118" width="294" height="146" rx="18" fill="url(#panel)" stroke="#99f6e4" stroke-opacity="0.65"/>
  <rect x="454" y="118" width="294" height="146" rx="18" fill="url(#panel)" stroke="#fef08a" stroke-opacity="0.62"/>
  <rect x="790" y="118" width="294" height="146" rx="18" fill="url(#panel)" stroke="#bfdbfe" stroke-opacity="0.62"/>
  <rect x="118" y="324" width="966" height="120" rx="18" fill="url(#panel)" stroke="#d8b4fe" stroke-opacity="0.5"/>
  <rect x="152" y="482" width="210" height="36" rx="18" fill="#14b8a6"/>
  <rect x="398" y="482" width="210" height="36" rx="18" fill="#eab308"/>
  <rect x="644" y="482" width="210" height="36" rx="18" fill="#38bdf8"/>
  <path d="M412 191 H454" stroke="#ccfbf1" stroke-width="6" stroke-linecap="round"/>
  <path d="M748 191 H790" stroke="#fef9c3" stroke-width="6" stroke-linecap="round"/>
  <path d="M601 264 V324" stroke="#e9d5ff" stroke-width="6" stroke-linecap="round"/>
  <circle cx="601" cy="384" r="44" fill="#f8fafc" opacity="0.96"/>
  <path d="M581 386 l16 16 31 -38" fill="none" stroke="#0f766e" stroke-width="10" stroke-linecap="round" stroke-linejoin="round"/>
  <text x="148" y="171" fill="#ccfbf1" font-family="Arial, Helvetica, sans-serif" font-size="26" font-weight="700">MICROSOFT</text>
  <text x="148" y="220" fill="#ffffff" font-family="Arial, Helvetica, sans-serif" font-size="42" font-weight="800">AI Platform</text>
  <text x="486" y="171" fill="#fef9c3" font-family="Arial, Helvetica, sans-serif" font-size="26" font-weight="700">EY</text>
  <text x="486" y="220" fill="#ffffff" font-family="Arial, Helvetica, sans-serif" font-size="42" font-weight="800">Client Zero</text>
  <text x="822" y="171" fill="#dbeafe" font-family="Arial, Helvetica, sans-serif" font-size="26" font-weight="700">FDE</text>
  <text x="822" y="220" fill="#ffffff" font-family="Arial, Helvetica, sans-serif" font-size="42" font-weight="800">Execution</text>
  <text x="156" y="378" fill="#f5f3ff" font-family="Arial, Helvetica, sans-serif" font-size="30" font-weight="700">Beyond pilots</text>
  <text x="156" y="421" fill="#ffffff" font-family="Arial, Helvetica, sans-serif" font-size="48" font-weight="800">$1B enterprise AI initiative</text>
  <text x="174" y="507" fill="#022c22" font-family="Arial, Helvetica, sans-serif" font-size="22" font-weight="800">15% productivity</text>
  <text x="423" y="507" fill="#422006" font-family="Arial, Helvetica, sans-serif" font-size="22" font-weight="800">400K people</text>
  <text x="670" y="507" fill="#082f49" font-family="Arial, Helvetica, sans-serif" font-size="22" font-weight="800">Governed AI</text>
  <text x="86" y="590" fill="#ccfbf1" font-family="Arial, Helvetica, sans-serif" font-size="22">Global / AI - May 22, 2026</text>
</svg>
