<svg width="1200" height="630" viewBox="0 0 1200 630" fill="none" xmlns="http://www.w3.org/2000/svg">
  <rect width="1200" height="630" fill="#100B14"/>
  <rect x="30" y="30" width="1140" height="570" rx="30" fill="url(#bg)"/>
  <rect x="92" y="118" width="310" height="288" rx="26" fill="#1A1022" stroke="#F97316" stroke-opacity="0.4"/>
  <path d="M146 350L198 284L254 312L318 236L362 262" stroke="#FB923C" stroke-width="12" stroke-linecap="round" stroke-linejoin="round"/>
  <circle cx="146" cy="350" r="9" fill="#FB923C"/>
  <circle cx="198" cy="284" r="9" fill="#FB923C"/>
  <circle cx="254" cy="312" r="9" fill="#FB923C"/>
  <circle cx="318" cy="236" r="9" fill="#FB923C"/>
  <circle cx="362" cy="262" r="9" fill="#FB923C"/>
  <rect x="472" y="104" width="620" height="126" rx="28" fill="#190F26" stroke="#A78BFA" stroke-opacity="0.4"/>
  <rect x="512" y="144" width="188" height="16" rx="8" fill="#E9D5FF"/>
  <rect x="512" y="172" width="306" height="12" rx="6" fill="#C4B5FD" fill-opacity="0.85"/>
  <rect x="472" y="270" width="188" height="156" rx="22" fill="#190F26" stroke="#60A5FA" stroke-opacity="0.4"/>
  <rect x="688" y="270" width="188" height="156" rx="22" fill="#190F26" stroke="#22C55E" stroke-opacity="0.4"/>
  <rect x="904" y="270" width="188" height="156" rx="22" fill="#190F26" stroke="#F59E0B" stroke-opacity="0.4"/>
  <rect x="510" y="302" width="104" height="14" rx="7" fill="#93C5FD"/>
  <rect x="510" y="330" width="122" height="12" rx="6" fill="#E2E8F0" fill-opacity="0.84"/>
  <rect x="726" y="302" width="108" height="14" rx="7" fill="#6EE7B7"/>
  <rect x="726" y="330" width="134" height="12" rx="6" fill="#E2E8F0" fill-opacity="0.84"/>
  <rect x="942" y="302" width="108" height="14" rx="7" fill="#FCD34D"/>
  <rect x="942" y="330" width="120" height="12" rx="6" fill="#E2E8F0" fill-opacity="0.84"/>
  <text x="92" y="520" fill="#F8FAFC" font-family="Arial, sans-serif" font-size="44" font-weight="700">EA FY26 and Live Services</text>
  <text x="92" y="566" fill="#FBCFE8" font-family="Arial, sans-serif" font-size="24">Battlefield momentum meets portfolio-scale recurring revenue</text>
  <defs>
    <linearGradient id="bg" x1="80" y1="44" x2="1118" y2="586" gradientUnits="userSpaceOnUse">
      <stop stop-color="#1B1024"/>
      <stop offset="0.56" stop-color="#2B153A"/>
      <stop offset="1" stop-color="#140B1A"/>
    </linearGradient>
  </defs>
</svg>
