<svg xmlns="http://www.w3.org/2000/svg" width="1200" height="630" viewBox="0 0 1200 630" role="img" aria-labelledby="title desc">
  <title id="title">Southeast Asia Blockchain Week Bangkok cover</title>
  <desc id="desc">Bangkok skyline, river, and digital finance network nodes for SEABW 2026</desc>
  <defs>
    <linearGradient id="bg" x1="0" y1="0" x2="1" y2="1">
      <stop offset="0" stop-color="#18213a"/>
      <stop offset="1" stop-color="#254f5f"/>
    </linearGradient>
    <linearGradient id="river" x1="0" y1="0" x2="1" y2="0">
      <stop offset="0" stop-color="#53b6c2"/>
      <stop offset="1" stop-color="#a8e0d4"/>
    </linearGradient>
  </defs>
  <rect width="1200" height="630" fill="url(#bg)"/>
  <path d="M0 432c210-70 360 68 600 0s390-42 600 28v170H0z" fill="url(#river)" opacity="0.85"/>
  <rect x="120" y="260" width="74" height="172" fill="#10192d"/>
  <rect x="218" y="196" width="86" height="236" fill="#10192d"/>
  <rect x="330" y="236" width="72" height="196" fill="#10192d"/>
  <rect x="790" y="216" width="92" height="216" fill="#10192d"/>
  <rect x="906" y="270" width="78" height="162" fill="#10192d"/>
  <path d="M498 432V234c0-58 46-105 102-105s102 47 102 105v198z" fill="#10192d"/>
  <path d="M553 432V252c0-28 21-51 47-51s47 23 47 51v180z" fill="#f2c66d"/>
  <g fill="#f2c66d">
    <circle cx="248" cy="238" r="9"/>
    <circle cx="834" cy="256" r="9"/>
    <circle cx="944" cy="310" r="9"/>
    <circle cx="600" cy="174" r="11"/>
  </g>
  <g stroke="#f2c66d" stroke-width="5" fill="none" opacity="0.9">
    <path d="M248 238L600 174L834 256L944 310"/>
    <path d="M248 238L834 256"/>
  </g>
  <circle cx="248" cy="238" r="22" fill="none" stroke="#f2c66d" stroke-width="5"/>
  <circle cx="834" cy="256" r="22" fill="none" stroke="#f2c66d" stroke-width="5"/>
  <circle cx="944" cy="310" r="22" fill="none" stroke="#f2c66d" stroke-width="5"/>
  <circle cx="600" cy="174" r="25" fill="none" stroke="#f2c66d" stroke-width="5"/>
  <text x="96" y="548" fill="#ffffff" font-family="Arial, sans-serif" font-size="38" font-weight="700">SEABW 2026 in Bangkok</text>
  <text x="1104" y="548" fill="#a8e0d4" font-family="Arial, sans-serif" font-size="30" font-weight="700" text-anchor="end">Thailand / SEA Ecosystem</text>
  <text x="1104" y="586" fill="#c6d5da" font-family="Arial, sans-serif" font-size="24" text-anchor="end">May 15, 2026</text>
</svg>
