<svg width="1200" height="630" viewBox="0 0 1200 630" xmlns="http://www.w3.org/2000/svg" role="img" aria-labelledby="title desc">
  <title id="title">OpenAI Partner Network enterprise AI ecosystem cover</title>
  <desc id="desc">Abstract enterprise partner network with connected nodes, deployment lanes, and AI workflow blocks.</desc>
  <defs>
    <linearGradient id="bg" x1="0" y1="0" x2="1" y2="1">
      <stop offset="0" stop-color="#0f172a"/>
      <stop offset="0.54" stop-color="#164e63"/>
      <stop offset="1" stop-color="#f59e0b"/>
    </linearGradient>
    <linearGradient id="panel" x1="0" y1="0" x2="1" y2="1">
      <stop offset="0" stop-color="#f8fafc" stop-opacity="0.94"/>
      <stop offset="1" stop-color="#dbeafe" stop-opacity="0.78"/>
    </linearGradient>
    <filter id="shadow" x="-20%" y="-20%" width="140%" height="140%">
      <feDropShadow dx="0" dy="16" stdDeviation="18" flood-color="#020617" flood-opacity="0.28"/>
    </filter>
  </defs>
  <rect width="1200" height="630" fill="url(#bg)"/>
  <path d="M0 455 C160 390 250 505 390 440 C565 360 675 430 815 350 C950 272 1020 320 1200 230 L1200 630 L0 630 Z" fill="#0f766e" opacity="0.32"/>
  <path d="M72 126 H1128 V512 H72 Z" fill="#020617" opacity="0.22"/>
  <g filter="url(#shadow)">
    <rect x="122" y="104" width="956" height="392" rx="28" fill="url(#panel)"/>
  </g>
  <g fill="none" stroke="#0f172a" stroke-width="5" opacity="0.72">
    <path d="M300 330 C415 255 505 250 610 314 C718 380 814 374 914 292"/>
    <path d="M302 246 C425 202 560 203 704 248 C790 275 858 262 930 215"/>
    <path d="M289 409 C390 384 496 394 610 430 C728 468 850 452 951 393"/>
  </g>
  <g>
    <circle cx="295" cy="331" r="46" fill="#0f172a"/>
    <circle cx="612" cy="315" r="58" fill="#0891b2"/>
    <circle cx="918" cy="292" r="46" fill="#f59e0b"/>
    <circle cx="300" cy="246" r="30" fill="#14b8a6"/>
    <circle cx="708" cy="249" r="32" fill="#2563eb"/>
    <circle cx="951" cy="393" r="35" fill="#22c55e"/>
    <circle cx="610" cy="430" r="34" fill="#f97316"/>
  </g>
  <g font-family="Arial, Helvetica, sans-serif" fill="#0f172a">
    <text x="168" y="190" font-size="35" font-weight="700">OpenAI Partner Network</text>
    <text x="168" y="233" font-size="24">Enterprise AI moves from pilots to operating model</text>
    <text x="168" y="466" font-size="22" font-weight="700" fill="#155e75">June 14, 2026</text>
    <text x="168" y="499" font-size="18" fill="#334155">Partners, certifications, Codex, cybersecurity, agents</text>
  </g>
  <g font-family="Arial, Helvetica, sans-serif" font-weight="700" font-size="18" fill="#ffffff" text-anchor="middle">
    <text x="295" y="337">Use case</text>
    <text x="612" y="320">Deploy</text>
    <text x="918" y="298">Outcome</text>
  </g>
</svg>
