<svg width="1280" height="720" viewBox="0 0 1280 720" xmlns="http://www.w3.org/2000/svg" role="img" aria-labelledby="title desc">
  <title id="title">Nvidia Wall Street AI financing cover</title>
  <desc id="desc">AI data center racks connected to Wall Street financing lines and a 500 billion dollar marker.</desc>
  <defs>
    <linearGradient id="bg" x1="0" x2="1" y1="0" y2="1">
      <stop offset="0" stop-color="#0b1f16"/>
      <stop offset="0.5" stop-color="#162915"/>
      <stop offset="1" stop-color="#101827"/>
    </linearGradient>
    <linearGradient id="rack" x1="0" x2="0" y1="0" y2="1">
      <stop offset="0" stop-color="#76b900"/>
      <stop offset="1" stop-color="#1f7a3f"/>
    </linearGradient>
    <filter id="shadow" x="-20%" y="-20%" width="140%" height="140%">
      <feDropShadow dx="0" dy="14" stdDeviation="16" flood-color="#000000" flood-opacity="0.35"/>
    </filter>
  </defs>
  <rect width="1280" height="720" fill="url(#bg)"/>
  <g opacity="0.18" stroke="#9be15d" stroke-width="2">
    <path d="M44 588C220 440 332 478 476 338S802 178 1208 130"/>
    <path d="M44 630C238 486 382 520 542 378S826 250 1208 210"/>
  </g>
  <g filter="url(#shadow)">
    <rect x="94" y="120" width="190" height="450" rx="18" fill="#101f18" stroke="#76b900" stroke-width="3"/>
    <rect x="318" y="120" width="190" height="450" rx="18" fill="#101f18" stroke="#76b900" stroke-width="3"/>
    <rect x="542" y="120" width="190" height="450" rx="18" fill="#101f18" stroke="#76b900" stroke-width="3"/>
  </g>
  <g fill="url(#rack)">
    <rect x="124" y="166" width="130" height="34" rx="8"/>
    <rect x="124" y="226" width="130" height="34" rx="8"/>
    <rect x="124" y="286" width="130" height="34" rx="8"/>
    <rect x="124" y="346" width="130" height="34" rx="8"/>
    <rect x="124" y="406" width="130" height="34" rx="8"/>
    <rect x="348" y="166" width="130" height="34" rx="8"/>
    <rect x="348" y="226" width="130" height="34" rx="8"/>
    <rect x="348" y="286" width="130" height="34" rx="8"/>
    <rect x="348" y="346" width="130" height="34" rx="8"/>
    <rect x="348" y="406" width="130" height="34" rx="8"/>
    <rect x="572" y="166" width="130" height="34" rx="8"/>
    <rect x="572" y="226" width="130" height="34" rx="8"/>
    <rect x="572" y="286" width="130" height="34" rx="8"/>
    <rect x="572" y="346" width="130" height="34" rx="8"/>
    <rect x="572" y="406" width="130" height="34" rx="8"/>
  </g>
  <g fill="none" stroke="#f8fafc" stroke-width="5" stroke-linecap="round">
    <path d="M732 256H892C946 256 978 214 1030 214H1134"/>
    <path d="M732 348H884C940 348 978 370 1030 370H1134"/>
    <path d="M732 440H900C950 440 978 516 1030 516H1134"/>
  </g>
  <g fill="#f8fafc">
    <circle cx="892" cy="256" r="7"/>
    <circle cx="884" cy="348" r="7"/>
    <circle cx="900" cy="440" r="7"/>
  </g>
  <rect x="790" y="116" width="386" height="456" rx="28" fill="#f8fafc" opacity="0.94" filter="url(#shadow)"/>
  <text x="828" y="206" fill="#0b1f16" font-family="Arial, sans-serif" font-size="56" font-weight="800">$500B</text>
  <text x="828" y="270" fill="#1f2937" font-family="Arial, sans-serif" font-size="34" font-weight="700">AI financing</text>
  <text x="828" y="330" fill="#1f2937" font-family="Arial, sans-serif" font-size="27">Apollo • BlackRock</text>
  <text x="828" y="372" fill="#1f2937" font-family="Arial, sans-serif" font-size="27">Blackstone • Brookfield</text>
  <text x="828" y="414" fill="#1f2937" font-family="Arial, sans-serif" font-size="27">Goldman Sachs • KKR</text>
  <rect x="828" y="482" width="262" height="46" rx="23" fill="#76b900"/>
  <text x="852" y="513" fill="#07140a" font-family="Arial, sans-serif" font-size="23" font-weight="800">HARDWARE / INFRA</text>
  <text x="100" y="636" fill="#d9f99d" font-family="Arial, sans-serif" font-size="34" font-weight="800">GPU as an investable asset class</text>
</svg>
