<svg width="1200" height="675" viewBox="0 0 1200 675" fill="none" xmlns="http://www.w3.org/2000/svg">
  <rect width="1200" height="675" fill="#101112"/>
  <rect x="58" y="54" width="1084" height="567" rx="28" fill="#18211E"/>
  <rect x="132" y="178" width="386" height="286" rx="24" fill="#F8FAFC"/>
  <path d="M132 232C194 182 284 162 390 178C450 186 486 208 518 232V178C518 164 506 152 492 152H158C144 152 132 164 132 178V232Z" fill="#14B8A6"/>
  <rect x="180" y="268" width="92" height="132" rx="16" fill="#FBCFE8"/>
  <rect x="302" y="244" width="80" height="156" rx="16" fill="#BAE6FD"/>
  <rect x="406" y="292" width="52" height="108" rx="14" fill="#FED7AA"/>
  <path d="M200 268V238C200 214 218 196 242 196H308C332 196 350 214 350 238V244" stroke="#111827" stroke-width="8" stroke-linecap="round"/>
  <rect x="618" y="134" width="392" height="330" rx="26" fill="#0F172A" stroke="#64748B" stroke-width="4"/>
  <path d="M700 380C728 310 780 260 846 232C892 212 936 198 972 168" stroke="#38BDF8" stroke-width="10" stroke-linecap="round"/>
  <path d="M662 404C706 398 754 396 802 402C862 408 914 426 984 398" stroke="#F472B6" stroke-width="10" stroke-linecap="round"/>
  <circle cx="700" cy="380" r="18" fill="#38BDF8"/>
  <circle cx="846" cy="232" r="18" fill="#38BDF8"/>
  <circle cx="972" cy="168" r="18" fill="#38BDF8"/>
  <circle cx="662" cy="404" r="16" fill="#F472B6"/>
  <circle cx="802" cy="402" r="16" fill="#F472B6"/>
  <circle cx="984" cy="398" r="16" fill="#F472B6"/>
  <rect x="682" y="212" width="96" height="40" rx="12" fill="#1E293B"/>
  <rect x="816" y="316" width="126" height="40" rx="12" fill="#1E293B"/>
  <path d="M650 506H1004" stroke="#64748B" stroke-width="6" stroke-linecap="round"/>
  <path d="M676 506V468M754 506V446M832 506V420M910 506V390M988 506V360" stroke="#22C55E" stroke-width="12" stroke-linecap="round"/>
  <text x="94" y="574" fill="#F8FAFC" font-family="Arial, sans-serif" font-size="48" font-weight="700">Konvy Series B</text>
  <text x="94" y="620" fill="#A7F3D0" font-family="Arial, sans-serif" font-size="25">Thailand beauty commerce as a Southeast Asia gateway</text>
</svg>
