<svg width="1200" height="630" viewBox="0 0 1200 630" xmlns="http://www.w3.org/2000/svg" role="img" aria-labelledby="title desc">
  <title id="title">Xbox weekly games slate cover</title>
  <desc id="desc">Game controller, calendar blocks, and platform tiles for the Xbox June release slate.</desc>
  <defs>
    <linearGradient id="bg" x1="0" y1="0" x2="1" y2="1">
      <stop offset="0" stop-color="#052e16"/>
      <stop offset="0.55" stop-color="#14532d"/>
      <stop offset="1" stop-color="#1f2937"/>
    </linearGradient>
  </defs>
  <rect width="1200" height="630" fill="url(#bg)"/>
  <circle cx="1030" cy="122" r="160" fill="#22c55e" opacity="0.16"/>
  <circle cx="176" cy="532" r="210" fill="#bef264" opacity="0.12"/>
  <g transform="translate(120 132)">
    <rect x="0" y="0" width="960" height="360" rx="32" fill="#020617" opacity="0.78" stroke="#86efac" stroke-opacity="0.45"/>
    <g transform="translate(88 96)">
      <path d="M226 112 C250 52 294 20 356 36 C390 45 424 72 450 112 C486 168 520 236 494 270 C466 306 420 256 376 226 C346 205 300 205 270 226 C226 256 180 306 152 270 C126 236 160 168 196 112 C204 100 214 92 226 112 Z" fill="#f8fafc"/>
      <circle cx="242" cy="152" r="18" fill="#16a34a"/>
      <rect x="222" y="146" width="40" height="12" rx="6" fill="#14532d"/>
      <rect x="236" y="132" width="12" height="40" rx="6" fill="#14532d"/>
      <circle cx="392" cy="136" r="13" fill="#22c55e"/>
      <circle cx="426" cy="168" r="13" fill="#84cc16"/>
      <circle cx="358" cy="168" r="13" fill="#4ade80"/>
      <circle cx="392" cy="200" r="13" fill="#bbf7d0"/>
    </g>
    <g transform="translate(612 68)" font-family="Arial, Helvetica, sans-serif" font-weight="700">
      <rect x="0" y="0" width="110" height="92" rx="14" fill="#22c55e"/>
      <rect x="134" y="0" width="110" height="92" rx="14" fill="#84cc16"/>
      <rect x="268" y="0" width="110" height="92" rx="14" fill="#bbf7d0"/>
      <rect x="0" y="122" width="110" height="92" rx="14" fill="#dcfce7"/>
      <rect x="134" y="122" width="110" height="92" rx="14" fill="#86efac"/>
      <rect x="268" y="122" width="110" height="92" rx="14" fill="#4ade80"/>
      <text x="38" y="58" fill="#052e16" font-size="34">8</text>
      <text x="172" y="58" fill="#052e16" font-size="34">9</text>
      <text x="296" y="58" fill="#052e16" font-size="34">10</text>
      <text x="28" y="180" fill="#052e16" font-size="34">11</text>
      <text x="162" y="180" fill="#052e16" font-size="34">12</text>
    </g>
  </g>
  <text x="134" y="544" fill="#f0fdf4" font-family="Arial, Helvetica, sans-serif" font-size="52" font-weight="700">Next Week on Xbox</text>
  <text x="134" y="588" fill="#bbf7d0" font-family="Arial, Helvetica, sans-serif" font-size="28" font-weight="700">Game Pass / Play Anywhere / June 8-12</text>
</svg>
