<svg width="1600" height="900" viewBox="0 0 1600 900" fill="none" xmlns="http://www.w3.org/2000/svg">
  <rect width="1600" height="900" fill="#07131D"/>
  <rect x="42" y="42" width="1516" height="816" rx="34" fill="url(#bg2)"/>
  <rect x="110" y="112" width="314" height="52" rx="26" fill="#19A974"/>
  <text x="146" y="146" fill="#EAFBF4" font-family="Arial, Helvetica, sans-serif" font-size="24" font-weight="700">HARDWARE / INFRASTRUCTURE</text>
  <text x="110" y="266" fill="#F3FAFF" font-family="Arial, Helvetica, sans-serif" font-size="74" font-weight="700">Multicloud Stops Being DIY</text>
  <text x="114" y="334" fill="#C7D8E8" font-family="Arial, Helvetica, sans-serif" font-size="30">AWS Interconnect - multicloud • GA on April 13, 2026</text>
  <rect x="112" y="430" width="470" height="220" rx="30" fill="#0E2230" stroke="#21435A" stroke-width="2"/>
  <text x="152" y="496" fill="#7CE5B1" font-family="Arial, Helvetica, sans-serif" font-size="30" font-weight="700">NEW FABRIC</text>
  <text x="152" y="548" fill="#F3FAFF" font-family="Arial, Helvetica, sans-serif" font-size="38">Private links across clouds</text>
  <text x="152" y="596" fill="#F3FAFF" font-family="Arial, Helvetica, sans-serif" font-size="38">Google first, Azure next</text>
  <text x="152" y="644" fill="#B8CCDD" font-family="Arial, Helvetica, sans-serif" font-size="26">Transit Gateway • Cloud WAN • 500 Mbps local free tier</text>
  <circle cx="1180" cy="270" r="94" fill="#FFB703"/>
  <circle cx="1035" cy="505" r="94" fill="#2EC4B6"/>
  <circle cx="1325" cy="505" r="94" fill="#4EA8DE"/>
  <line x1="1112" y1="321" x2="1090" y2="421" stroke="#DDECF7" stroke-width="12" stroke-linecap="round"/>
  <line x1="1248" y1="321" x2="1270" y2="421" stroke="#DDECF7" stroke-width="12" stroke-linecap="round"/>
  <line x1="1105" y1="505" x2="1255" y2="505" stroke="#DDECF7" stroke-width="12" stroke-linecap="round"/>
  <text x="1138" y="279" fill="#092030" font-family="Arial, Helvetica, sans-serif" font-size="36" font-weight="700">AWS</text>
  <text x="983" y="514" fill="#083B37" font-family="Arial, Helvetica, sans-serif" font-size="30" font-weight="700">GCP</text>
  <text x="1270" y="514" fill="#082C46" font-family="Arial, Helvetica, sans-serif" font-size="28" font-weight="700">AZURE</text>
  <defs>
    <linearGradient id="bg2" x1="109" y1="63" x2="1474" y2="856" gradientUnits="userSpaceOnUse">
      <stop stop-color="#102533"/>
      <stop offset="1" stop-color="#0B1720"/>
    </linearGradient>
  </defs>
</svg>
