<svg xmlns="http://www.w3.org/2000/svg" width="1200" height="630" viewBox="0 0 1200 630" role="img" aria-labelledby="title desc">
  <title id="title">CSN-2 AI backbone cover</title>
  <desc id="desc">Map-like abstract Gulf fiber route connecting data center hubs</desc>
  <defs>
    <linearGradient id="ocean" x1="0" y1="0" x2="1" y2="1">
      <stop offset="0" stop-color="#0b2b3a"/>
      <stop offset="1" stop-color="#0d4b54"/>
    </linearGradient>
    <linearGradient id="land" x1="0" y1="0" x2="1" y2="1">
      <stop offset="0" stop-color="#d8c6a1"/>
      <stop offset="1" stop-color="#8fb097"/>
    </linearGradient>
  </defs>
  <rect width="1200" height="630" fill="url(#ocean)"/>
  <path d="M64 118c142-42 254-20 346 48 76 56 144 96 244 68 86-24 132-98 230-116 82-14 158 8 252 54v400H64z" fill="url(#land)" opacity="0.95"/>
  <path d="M150 452c142-84 254-120 358-116 126 4 198 88 316 64 76-16 134-72 230-102" fill="none" stroke="#e9f7f5" stroke-width="20" stroke-linecap="round"/>
  <path d="M150 452c142-84 254-120 358-116 126 4 198 88 316 64 76-16 134-72 230-102" fill="none" stroke="#31d0c6" stroke-width="8" stroke-linecap="round" stroke-dasharray="2 30"/>
  <circle cx="220" cy="420" r="34" fill="#102b32" stroke="#e9f7f5" stroke-width="8"/>
  <circle cx="508" cy="336" r="34" fill="#102b32" stroke="#e9f7f5" stroke-width="8"/>
  <circle cx="824" cy="400" r="34" fill="#102b32" stroke="#e9f7f5" stroke-width="8"/>
  <circle cx="1014" cy="312" r="34" fill="#102b32" stroke="#e9f7f5" stroke-width="8"/>
  <rect x="82" y="64" width="420" height="126" rx="26" fill="#f7fbf9" opacity="0.96"/>
  <text x="112" y="116" fill="#102b32" font-family="Arial, sans-serif" font-size="36" font-weight="700">CSN-2</text>
  <text x="112" y="154" fill="#31505a" font-family="Arial, sans-serif" font-size="24">subsea AI backbone</text>
  <text x="112" y="550" fill="#f7fbf9" font-family="Arial, sans-serif" font-size="34" font-weight="700">Hardware / Infrastructure</text>
  <text x="1088" y="550" fill="#f7fbf9" font-family="Arial, sans-serif" font-size="28" font-weight="700" text-anchor="end">May 15, 2026</text>
</svg>
