<svg xmlns="http://www.w3.org/2000/svg" width="1200" height="630" viewBox="0 0 1200 630" role="img" aria-labelledby="title desc">
  <title id="title">Dell AI data center stack cover</title>
  <desc id="desc">Rack-scale data center infrastructure with storage, compute, automation, and cyber resilience layers.</desc>
  <defs>
    <linearGradient id="bg" x1="0" x2="1" y1="0" y2="1">
      <stop offset="0" stop-color="#eef7fb"/>
      <stop offset="0.55" stop-color="#eef3f8"/>
      <stop offset="1" stop-color="#f9f2e8"/>
    </linearGradient>
    <linearGradient id="rack" x1="0" x2="0" y1="0" y2="1">
      <stop offset="0" stop-color="#0f172a"/>
      <stop offset="1" stop-color="#263447"/>
    </linearGradient>
    <linearGradient id="cool" x1="0" x2="1" y1="0" y2="0">
      <stop offset="0" stop-color="#06b6d4"/>
      <stop offset="1" stop-color="#22c55e"/>
    </linearGradient>
    <filter id="shadow" x="-20%" y="-20%" width="140%" height="140%">
      <feDropShadow dx="0" dy="20" stdDeviation="24" flood-color="#0f172a" flood-opacity="0.18"/>
    </filter>
  </defs>
  <rect width="1200" height="630" fill="url(#bg)"/>
  <path d="M0 498 C218 390 345 516 548 428 C706 360 824 232 1200 286 L1200 630 L0 630 Z" fill="#d7ecf5" opacity="0.72"/>
  <g opacity="0.32" stroke="#8da2b8" stroke-width="2">
    <path d="M90 110 H1110"/>
    <path d="M90 190 H1110"/>
    <path d="M90 270 H1110"/>
    <path d="M90 350 H1110"/>
    <path d="M90 430 H1110"/>
    <path d="M90 510 H1110"/>
  </g>
  <g transform="translate(108 92)" filter="url(#shadow)">
    <rect width="330" height="410" rx="30" fill="url(#rack)"/>
    <rect x="32" y="38" width="266" height="58" rx="14" fill="#374151"/>
    <rect x="32" y="118" width="266" height="58" rx="14" fill="#374151"/>
    <rect x="32" y="198" width="266" height="58" rx="14" fill="#374151"/>
    <rect x="32" y="278" width="266" height="58" rx="14" fill="#374151"/>
    <g fill="url(#cool)">
      <rect x="58" y="58" width="120" height="16" rx="8"/>
      <rect x="58" y="138" width="172" height="16" rx="8"/>
      <rect x="58" y="218" width="140" height="16" rx="8"/>
      <rect x="58" y="298" width="196" height="16" rx="8"/>
    </g>
    <g fill="#e2e8f0">
      <circle cx="258" cy="66" r="8"/>
      <circle cx="258" cy="146" r="8"/>
      <circle cx="258" cy="226" r="8"/>
      <circle cx="258" cy="306" r="8"/>
    </g>
  </g>
  <g transform="translate(498 122)" filter="url(#shadow)">
    <rect width="268" height="320" rx="28" fill="#ffffff"/>
    <text x="34" y="66" font-family="Arial, sans-serif" font-size="28" font-weight="800" fill="#172033">Automation</text>
    <text x="34" y="104" font-family="Arial, sans-serif" font-size="21" fill="#64748b">agentic control plane</text>
    <g fill="none" stroke="#2563eb" stroke-width="8" stroke-linecap="round" stroke-linejoin="round">
      <path d="M54 172 H126"/>
      <path d="M126 172 V126"/>
      <path d="M126 172 V218"/>
      <path d="M126 126 H204"/>
      <path d="M126 218 H204"/>
    </g>
    <g fill="#22c55e">
      <circle cx="54" cy="172" r="17"/>
      <circle cx="204" cy="126" r="17"/>
      <circle cx="204" cy="218" r="17"/>
    </g>
    <rect x="34" y="264" width="200" height="18" rx="9" fill="#cbd5e1"/>
  </g>
  <g transform="translate(814 92)" filter="url(#shadow)">
    <rect width="278" height="410" rx="30" fill="#111827"/>
    <text x="36" y="70" font-family="Arial, sans-serif" font-size="30" font-weight="800" fill="#ffffff">AI Era</text>
    <text x="36" y="110" font-family="Arial, sans-serif" font-size="22" fill="#a7f3d0">storage compute security</text>
    <rect x="38" y="158" width="202" height="22" rx="11" fill="#06b6d4"/>
    <rect x="38" y="206" width="152" height="22" rx="11" fill="#22c55e"/>
    <rect x="38" y="254" width="220" height="22" rx="11" fill="#f59e0b"/>
    <rect x="38" y="302" width="182" height="22" rx="11" fill="#818cf8"/>
    <path d="M42 362 H236" stroke="#475569" stroke-width="2"/>
  </g>
  <text x="108" y="560" font-family="Arial, sans-serif" font-size="44" font-weight="800" fill="#172033">Modern Data Center for AI</text>
  <text x="110" y="596" font-family="Arial, sans-serif" font-size="23" fill="#475569">PowerStore Elite, PowerEdge, PowerProtect and Automation Platform</text>
</svg>
