<svg xmlns="http://www.w3.org/2000/svg" width="1200" height="630" viewBox="0 0 1200 630" role="img" aria-labelledby="title desc">
  <title id="title">Blackstone digital infrastructure IPO cover</title>
  <desc id="desc">Data center towers, capital market bars, and fiber lines representing digital infrastructure investment.</desc>
  <defs>
    <linearGradient id="bg" x1="0" y1="0" x2="1" y2="1">
      <stop offset="0" stop-color="#111827"/>
      <stop offset="0.55" stop-color="#334155"/>
      <stop offset="1" stop-color="#065f46"/>
    </linearGradient>
    <filter id="shadow" x="-20%" y="-20%" width="140%" height="140%">
      <feDropShadow dx="0" dy="18" stdDeviation="18" flood-color="#020617" flood-opacity="0.34"/>
    </filter>
  </defs>
  <rect width="1200" height="630" fill="url(#bg)"/>
  <g opacity="0.2" stroke="#bbf7d0" stroke-width="2">
    <path d="M90 110 H1110"/>
    <path d="M90 210 H1110"/>
    <path d="M90 310 H1110"/>
    <path d="M90 410 H1110"/>
    <path d="M90 510 H1110"/>
  </g>
  <g filter="url(#shadow)">
    <rect x="176" y="158" width="184" height="310" rx="12" fill="#e2e8f0"/>
    <rect x="418" y="104" width="184" height="364" rx="12" fill="#f8fafc"/>
    <rect x="660" y="198" width="184" height="270" rx="12" fill="#cbd5e1"/>
    <rect x="902" y="132" width="124" height="336" rx="12" fill="#ecfdf5"/>
  </g>
  <g fill="#0f172a" opacity="0.88">
    <rect x="210" y="198" width="116" height="18" rx="5"/>
    <rect x="210" y="244" width="116" height="18" rx="5"/>
    <rect x="210" y="290" width="116" height="18" rx="5"/>
    <rect x="210" y="336" width="116" height="18" rx="5"/>
    <rect x="210" y="382" width="116" height="18" rx="5"/>
    <rect x="452" y="148" width="116" height="18" rx="5"/>
    <rect x="452" y="194" width="116" height="18" rx="5"/>
    <rect x="452" y="240" width="116" height="18" rx="5"/>
    <rect x="452" y="286" width="116" height="18" rx="5"/>
    <rect x="452" y="332" width="116" height="18" rx="5"/>
    <rect x="696" y="240" width="112" height="18" rx="5"/>
    <rect x="696" y="286" width="112" height="18" rx="5"/>
    <rect x="696" y="332" width="112" height="18" rx="5"/>
    <rect x="696" y="378" width="112" height="18" rx="5"/>
    <rect x="930" y="182" width="68" height="18" rx="5"/>
    <rect x="930" y="228" width="68" height="18" rx="5"/>
    <rect x="930" y="274" width="68" height="18" rx="5"/>
    <rect x="930" y="320" width="68" height="18" rx="5"/>
    <rect x="930" y="366" width="68" height="18" rx="5"/>
  </g>
  <path d="M160 500 C300 430 436 522 574 438 S812 374 1048 468" fill="none" stroke="#34d399" stroke-width="10" stroke-linecap="round"/>
  <g font-family="Arial, Helvetica, sans-serif">
    <text x="154" y="86" font-size="32" font-weight="700" fill="#f8fafc">HARDWARE / INFRASTRUCTURE</text>
    <text x="154" y="572" font-size="42" font-weight="800" fill="#ffffff">Data Center Capital</text>
    <text x="604" y="572" font-size="30" font-weight="700" fill="#86efac">$1.75B IPO</text>
  </g>
</svg>
