<svg xmlns="http://www.w3.org/2000/svg" width="1200" height="630" viewBox="0 0 1200 630" role="img" aria-labelledby="title desc">
  <title id="title">Mistral Southeast Asia expansion cover</title>
  <desc id="desc">A stylized Southeast Asia regional network with Singapore and Thailand nodes for an AI ecosystem article.</desc>
  <rect width="1200" height="630" fill="#f5f7fb"/>
  <rect x="0" y="0" width="1200" height="630" fill="#f5f7fb"/>
  <path d="M140 470c90-120 184-188 314-210 138-24 266 8 382-42 86-38 150-104 230-102" fill="none" stroke="#d9e2ec" stroke-width="42" stroke-linecap="round"/>
  <path d="M206 424c70-92 142-138 248-154 120-18 244 18 340-30 74-36 126-90 204-94" fill="none" stroke="#2f80ed" stroke-width="7" stroke-linecap="round" stroke-dasharray="2 18"/>
  <g fill="#16324f">
    <path d="M600 170l42 84 92 14-67 64 16 91-83-43-82 43 15-91-66-64 92-14z"/>
  </g>
  <g fill="#2f80ed" stroke="#ffffff" stroke-width="6">
    <circle cx="428" cy="304" r="34"/>
    <circle cx="548" cy="360" r="26"/>
    <circle cx="682" cy="306" r="28"/>
    <circle cx="792" cy="238" r="24"/>
    <circle cx="900" cy="172" r="30"/>
    <circle cx="338" cy="384" r="24"/>
  </g>
  <g stroke="#16324f" stroke-width="5" fill="none">
    <path d="M428 304l120 56 134-54 110-68 108-66"/>
    <path d="M428 304l-90 80"/>
  </g>
  <rect x="792" y="402" width="250" height="72" rx="12" fill="#16324f"/>
  <text x="822" y="449" fill="#ffffff" font-family="Arial, sans-serif" font-size="30" font-weight="700">Singapore Hub</text>
  <rect x="148" y="132" width="308" height="76" rx="12" fill="#ffffff" stroke="#2f80ed" stroke-width="4"/>
  <text x="178" y="180" fill="#16324f" font-family="Arial, sans-serif" font-size="30" font-weight="700">Thailand and SEA</text>
  <text x="84" y="542" fill="#16324f" font-family="Arial, sans-serif" font-size="46" font-weight="700">Mistral Expands in Southeast Asia</text>
  <text x="86" y="584" fill="#2f80ed" font-family="Arial, sans-serif" font-size="27">40 to 100 Singapore roles • Thailand growth signal</text>
</svg>
