<svg xmlns="http://www.w3.org/2000/svg" width="1280" height="720" viewBox="0 0 1280 720" role="img" aria-labelledby="title desc">
  <title id="title">Modern Warfare 4 beta cover</title>
  <desc id="desc">A tactical beta countdown screen with controller and platform indicators.</desc>
  <defs>
    <linearGradient id="bg" x1="0" x2="1" y1="0" y2="1">
      <stop offset="0%" stop-color="#18181b"/>
      <stop offset="50%" stop-color="#27272a"/>
      <stop offset="100%" stop-color="#3f3f46"/>
    </linearGradient>
    <linearGradient id="yellow" x1="0" x2="1" y1="0" y2="1">
      <stop offset="0%" stop-color="#fde047"/>
      <stop offset="100%" stop-color="#facc15"/>
    </linearGradient>
    <filter id="shadow" x="-20%" y="-20%" width="140%" height="140%">
      <feDropShadow dx="0" dy="16" stdDeviation="18" flood-color="#000000" flood-opacity="0.42"/>
    </filter>
  </defs>
  <rect width="1280" height="720" fill="url(#bg)"/>
  <g opacity="0.18" stroke="#f4f4f5" stroke-width="2">
    <path d="M0 160h1280"/>
    <path d="M0 280h1280"/>
    <path d="M0 400h1280"/>
    <path d="M0 520h1280"/>
    <path d="M180 0v720"/>
    <path d="M420 0v720"/>
    <path d="M660 0v720"/>
    <path d="M900 0v720"/>
    <path d="M1140 0v720"/>
  </g>
  <rect x="74" y="72" width="1132" height="576" rx="28" fill="#09090b" opacity="0.58"/>
  <g filter="url(#shadow)">
    <rect x="116" y="174" width="548" height="112" rx="10" fill="url(#yellow)"/>
    <rect x="116" y="316" width="548" height="112" rx="10" fill="#f4f4f5"/>
    <rect x="116" y="458" width="548" height="112" rx="10" fill="#18181b" stroke="#facc15" stroke-width="4"/>
  </g>
  <g font-family="Arial, Helvetica, sans-serif" font-weight="700">
    <text x="140" y="148" font-size="40" fill="#fde047">CALL OF DUTY BETA</text>
    <text x="152" y="246" font-size="48" fill="#18181b">AUG 21 - AUG 25</text>
    <text x="152" y="388" font-size="46" fill="#18181b">OPEN: AUG 28</text>
    <text x="152" y="528" font-size="42" fill="#facc15">LAUNCH: OCT 23</text>
    <text x="762" y="168" font-size="30" fill="#a1a1aa">MODERN WARFARE 4</text>
    <text x="764" y="612" font-size="28" fill="#fde047">PS5  XBOX  PC  SWITCH 2</text>
  </g>
  <g transform="translate(798 248)" fill="none" stroke="#f4f4f5" stroke-width="18" stroke-linecap="round" stroke-linejoin="round" filter="url(#shadow)">
    <path d="M0 110c16-92 54-132 132-132h130c78 0 116 40 132 132l24 132c9 49-47 78-82 39l-62-68H120l-62 68c-35 39-91 10-82-39z" fill="#27272a"/>
    <circle cx="110" cy="112" r="30" stroke="#facc15"/>
    <path d="M246 82v60"/>
    <path d="M216 112h60"/>
    <circle cx="318" cy="84" r="13" fill="#facc15" stroke="none"/>
    <circle cx="356" cy="124" r="13" fill="#f4f4f5" stroke="none"/>
  </g>
  <rect x="772" y="198" width="320" height="22" rx="11" fill="#facc15"/>
  <rect x="772" y="642" width="236" height="18" rx="9" fill="#a1a1aa"/>
</svg>
