<svg xmlns="http://www.w3.org/2000/svg" width="1200" height="630" viewBox="0 0 1200 630" role="img" aria-labelledby="title desc">
  <title id="title">Schneider Electric and Foxconn AI data center reference architecture cover</title>
  <desc id="desc">A stylized AI data center blueprint showing modular power, cooling, rack manufacturing, and energy optimization loops.</desc>
  <defs>
    <linearGradient id="bg" x1="0" x2="1" y1="0" y2="1">
      <stop offset="0" stop-color="#10251d"/>
      <stop offset="0.46" stop-color="#14392b"/>
      <stop offset="1" stop-color="#0b1828"/>
    </linearGradient>
    <linearGradient id="rack" x1="0" x2="0" y1="0" y2="1">
      <stop offset="0" stop-color="#d9fff0"/>
      <stop offset="1" stop-color="#5ee7a0"/>
    </linearGradient>
    <filter id="soft" x="-20%" y="-20%" width="140%" height="140%">
      <feDropShadow dx="0" dy="14" stdDeviation="18" flood-color="#000000" flood-opacity="0.28"/>
    </filter>
  </defs>
  <rect width="1200" height="630" fill="url(#bg)"/>
  <path d="M0 452C152 390 238 445 365 385C510 316 609 282 748 319C891 358 978 290 1200 230V630H0Z" fill="#09201b" opacity="0.72"/>
  <g opacity="0.2" stroke="#b9ffe0" stroke-width="1">
    <path d="M80 90H1120M80 150H1120M80 210H1120M80 270H1120M80 330H1120M80 390H1120M80 450H1120"/>
    <path d="M120 60V520M220 60V520M320 60V520M420 60V520M520 60V520M620 60V520M720 60V520M820 60V520M920 60V520M1020 60V520"/>
  </g>
  <g filter="url(#soft)">
    <rect x="104" y="130" width="232" height="318" rx="18" fill="#123327" stroke="#71f4b2" stroke-width="3"/>
    <rect x="132" y="164" width="176" height="42" rx="8" fill="url(#rack)" opacity="0.88"/>
    <rect x="132" y="224" width="176" height="42" rx="8" fill="url(#rack)" opacity="0.72"/>
    <rect x="132" y="284" width="176" height="42" rx="8" fill="url(#rack)" opacity="0.72"/>
    <rect x="132" y="344" width="176" height="42" rx="8" fill="url(#rack)" opacity="0.88"/>
    <circle cx="154" cy="412" r="11" fill="#6effb9"/>
    <circle cx="196" cy="412" r="11" fill="#6effb9"/>
    <circle cx="238" cy="412" r="11" fill="#6effb9"/>
  </g>
  <g filter="url(#soft)">
    <rect x="412" y="98" width="360" height="382" rx="24" fill="#f6fff9" opacity="0.96"/>
    <rect x="452" y="142" width="280" height="36" rx="8" fill="#d7f8e6"/>
    <rect x="452" y="210" width="126" height="74" rx="14" fill="#123327"/>
    <rect x="606" y="210" width="126" height="74" rx="14" fill="#123327"/>
    <rect x="452" y="318" width="126" height="74" rx="14" fill="#123327"/>
    <rect x="606" y="318" width="126" height="74" rx="14" fill="#123327"/>
    <path d="M516 284V318M669 284V318M578 247H606M578 355H606" stroke="#19b56e" stroke-width="7" stroke-linecap="round"/>
    <text x="452" y="438" font-family="Arial, Helvetica, sans-serif" font-size="28" font-weight="700" fill="#10251d">reference architecture</text>
  </g>
  <g filter="url(#soft)">
    <rect x="848" y="130" width="248" height="318" rx="20" fill="#0f2b47" stroke="#83d7ff" stroke-width="3"/>
    <path d="M890 368C946 292 1012 438 1060 322" fill="none" stroke="#83d7ff" stroke-width="12" stroke-linecap="round"/>
    <path d="M900 210H1048M900 250H1048M900 290H1048" stroke="#d8f4ff" stroke-width="12" stroke-linecap="round"/>
    <circle cx="930" cy="392" r="17" fill="#5ee7a0"/>
    <circle cx="996" cy="392" r="17" fill="#5ee7a0"/>
    <circle cx="1062" cy="392" r="17" fill="#5ee7a0"/>
  </g>
  <path d="M336 286H412M772 286H848" stroke="#ccffdf" stroke-width="10" stroke-linecap="round" stroke-dasharray="20 18"/>
  <path d="M336 360C380 428 432 502 548 504C672 506 770 446 848 372" fill="none" stroke="#6effb9" stroke-width="8" stroke-linecap="round"/>
  <text x="88" y="540" font-family="Arial, Helvetica, sans-serif" font-size="58" font-weight="800" fill="#ffffff">AI data centers</text>
  <text x="90" y="585" font-family="Arial, Helvetica, sans-serif" font-size="30" fill="#c7ffde">power, cooling, manufacturing, and repeatable blueprints</text>
</svg>
