<svg width="1200" height="630" viewBox="0 0 1200 630" xmlns="http://www.w3.org/2000/svg" role="img" aria-labelledby="title desc">
  <title id="title">Resident Evil Veronica reveal cover</title>
  <desc id="desc">A topic-specific editorial cover with survival horror island, rain, mansion bars, and platform labels.</desc>
  <rect width="1200" height="630" fill="#120f14"/>
  <rect x="68" y="62" width="1064" height="506" rx="32" fill="#1b1720" stroke="#d63b3b" stroke-width="3"/>
  <path d="M88 440 C210 390 320 404 428 446 C548 494 650 488 772 430 C900 370 1028 392 1112 452 L1112 568 L88 568 Z" fill="#24333a"/>
  <path d="M702 184 h184 l30 256 h-246 Z" fill="#2a242a" stroke="#8b8f91" stroke-width="5"/>
  <path d="M742 222 h38 v60 h-38 Z M810 222 h38 v60 h-38 Z M754 322 h82 v118 h-82 Z" fill="#120f14" stroke="#d63b3b" stroke-width="4"/>
  <path d="M264 198 l126 -76 l126 76 v244 h-252 Z" fill="#24272b" stroke="#8b8f91" stroke-width="5"/>
  <path d="M316 238 h54 v76 h-54 Z M410 238 h54 v76 h-54 Z M344 360 h94 v82 h-94 Z" fill="#120f14" stroke="#f0c75e" stroke-width="4"/>
  <g stroke="#5b666c" stroke-width="3" opacity=".75">
    <path d="M150 80 l-96 488"/>
    <path d="M264 68 l-82 500"/>
    <path d="M1020 72 l76 496"/>
    <path d="M920 70 l54 498"/>
  </g>
  <g fill="#d63b3b" opacity=".9">
    <circle cx="930" cy="256" r="10"/>
    <circle cx="214" cy="384" r="8"/>
    <circle cx="538" cy="444" r="7"/>
  </g>
  <text x="92" y="118" fill="#f3efe4" font-family="Arial, Helvetica, sans-serif" font-size="28" font-weight="700">GAMES / CONSUMER</text>
  <text x="92" y="502" fill="#f3efe4" font-family="Arial, Helvetica, sans-serif" font-size="56" font-weight="800">Resident Evil Veronica</text>
  <text x="92" y="544" fill="#d63b3b" font-family="Arial, Helvetica, sans-serif" font-size="28" font-weight="700">Code: Veronica remake · PS5 · Xbox · Switch 2 · PC · 2027</text>
  <text x="908" y="118" fill="#f0c75e" font-family="Arial, Helvetica, sans-serif" font-size="26" font-weight="700">JUN 7, 2026</text>
</svg>
