<svg xmlns="http://www.w3.org/2000/svg" width="1200" height="675" viewBox="0 0 1200 675" role="img" aria-labelledby="title desc">
  <title id="title">OpenAI Daybreak cyber defense cover</title>
  <desc id="desc">Abstract cyber defense interface with dawn light, shield, code paths, and security nodes.</desc>
  <defs>
    <linearGradient id="bg" x1="0" y1="0" x2="1" y2="1">
      <stop offset="0" stop-color="#111827"/>
      <stop offset="0.52" stop-color="#164E63"/>
      <stop offset="1" stop-color="#F59E0B"/>
    </linearGradient>
    <linearGradient id="panel" x1="0" y1="0" x2="1" y2="1">
      <stop offset="0" stop-color="#0F172A" stop-opacity="0.92"/>
      <stop offset="1" stop-color="#0E7490" stop-opacity="0.74"/>
    </linearGradient>
    <filter id="soft" x="-20%" y="-20%" width="140%" height="140%">
      <feGaussianBlur stdDeviation="18"/>
    </filter>
  </defs>
  <rect width="1200" height="675" fill="url(#bg)"/>
  <circle cx="1028" cy="102" r="156" fill="#FBBF24" opacity="0.42" filter="url(#soft)"/>
  <path d="M0 492 C184 430 352 457 506 408 C718 341 856 239 1200 310 L1200 675 L0 675 Z" fill="#020617" opacity="0.36"/>
  <rect x="102" y="92" width="996" height="492" rx="28" fill="url(#panel)" stroke="#A7F3D0" stroke-opacity="0.32"/>
  <path d="M600 170 L770 238 V348 C770 446 698 500 600 530 C502 500 430 446 430 348 V238 Z" fill="#0F766E" opacity="0.78" stroke="#CCFBF1" stroke-width="6"/>
  <path d="M527 346 L579 398 L690 282" fill="none" stroke="#FEF3C7" stroke-width="24" stroke-linecap="round" stroke-linejoin="round"/>
  <g opacity="0.74" stroke="#BAE6FD" stroke-width="4" fill="none">
    <path d="M214 221 H365 C392 221 400 246 421 258"/>
    <path d="M214 328 H362 C390 328 403 310 430 310"/>
    <path d="M214 435 H384 C410 435 420 398 444 386"/>
    <path d="M986 231 H834 C804 231 795 254 774 268"/>
    <path d="M986 337 H838 C807 337 792 322 770 322"/>
    <path d="M986 447 H814 C794 447 779 415 756 398"/>
  </g>
  <g fill="#ECFEFF">
    <circle cx="214" cy="221" r="13"/>
    <circle cx="214" cy="328" r="13"/>
    <circle cx="214" cy="435" r="13"/>
    <circle cx="986" cy="231" r="13"/>
    <circle cx="986" cy="337" r="13"/>
    <circle cx="986" cy="447" r="13"/>
  </g>
  <text x="110" y="610" font-family="Inter, Arial, sans-serif" font-size="42" font-weight="700" fill="#F8FAFC">OPENAI DAYBREAK</text>
  <text x="110" y="646" font-family="Inter, Arial, sans-serif" font-size="24" fill="#CFFAFE">Frontier AI for cyber defense</text>
</svg>
