<svg xmlns="http://www.w3.org/2000/svg" width="1200" height="630" viewBox="0 0 1200 630" role="img" aria-labelledby="title desc">
  <title id="title">Palantir AIP Global Branching cover</title>
  <desc id="desc">Abstract enterprise AI workflow branches merging into a production lane.</desc>
  <defs>
    <linearGradient id="bg" x1="0" y1="0" x2="1" y2="1">
      <stop offset="0" stop-color="#111827"/>
      <stop offset="0.52" stop-color="#123c5d"/>
      <stop offset="1" stop-color="#e0a12f"/>
    </linearGradient>
    <linearGradient id="line" x1="0" y1="0" x2="1" y2="0">
      <stop offset="0" stop-color="#8bd3ff"/>
      <stop offset="1" stop-color="#ffd166"/>
    </linearGradient>
    <filter id="shadow" x="-20%" y="-20%" width="140%" height="140%">
      <feDropShadow dx="0" dy="14" stdDeviation="18" flood-color="#020617" flood-opacity="0.32"/>
    </filter>
  </defs>
  <rect width="1200" height="630" fill="url(#bg)"/>
  <g opacity="0.14" stroke="#ffffff" stroke-width="1">
    <path d="M90 96h1020M90 184h1020M90 272h1020M90 360h1020M90 448h1020M90 536h1020"/>
    <path d="M150 68v500M310 68v500M470 68v500M630 68v500M790 68v500M950 68v500"/>
  </g>
  <g filter="url(#shadow)">
    <rect x="118" y="94" width="964" height="442" rx="28" fill="#f8fafc" opacity="0.96"/>
    <rect x="162" y="139" width="876" height="70" rx="18" fill="#111827"/>
    <text x="190" y="184" fill="#f8fafc" font-family="Arial, Helvetica, sans-serif" font-size="30" font-weight="700">GLOBAL BRANCHING</text>
    <text x="810" y="184" fill="#ffd166" font-family="Arial, Helvetica, sans-serif" font-size="24" font-weight="700">AIP</text>
    <g fill="none" stroke="url(#line)" stroke-width="12" stroke-linecap="round" stroke-linejoin="round">
      <path d="M230 382C355 382 360 263 496 263"/>
      <path d="M230 382C366 382 382 382 516 382"/>
      <path d="M230 382C352 382 378 496 516 496"/>
      <path d="M516 263C656 263 666 382 816 382"/>
      <path d="M516 382C646 382 676 382 816 382"/>
      <path d="M516 496C658 496 668 382 816 382"/>
    </g>
    <g fill="#111827">
      <circle cx="230" cy="382" r="26"/>
      <circle cx="516" cy="263" r="24"/>
      <circle cx="516" cy="382" r="24"/>
      <circle cx="516" cy="496" r="24"/>
      <circle cx="816" cy="382" r="30"/>
    </g>
    <g font-family="Arial, Helvetica, sans-serif" font-size="20" font-weight="700" fill="#111827">
      <text x="190" y="326">DEV</text>
      <text x="456" y="236">MODEL</text>
      <text x="456" y="354">LOGIC</text>
      <text x="456" y="468">ONTOLOGY</text>
      <text x="768" y="326">MAIN</text>
    </g>
    <text x="166" y="254" fill="#334155" font-family="Arial, Helvetica, sans-serif" font-size="24">branch, test, approve, merge</text>
  </g>
</svg>
