<svg xmlns="http://www.w3.org/2000/svg" width="1200" height="630" viewBox="0 0 1200 630" role="img" aria-labelledby="title desc">
  <title id="title">Microsoft Thailand AI cloud investment cover</title>
  <desc id="desc">Thailand cloud region concept with AI infrastructure, talent pathways, and ecosystem connections.</desc>
  <defs>
    <linearGradient id="bg" x1="0" x2="1" y1="0" y2="1">
      <stop offset="0" stop-color="#f7fbff"/>
      <stop offset="0.45" stop-color="#eef6ff"/>
      <stop offset="1" stop-color="#fef2f2"/>
    </linearGradient>
    <linearGradient id="ms" x1="0" x2="1" y1="0" y2="1">
      <stop offset="0" stop-color="#7fba00"/>
      <stop offset="0.5" stop-color="#00a4ef"/>
      <stop offset="1" stop-color="#f25022"/>
    </linearGradient>
    <filter id="shadow" x="-20%" y="-20%" width="140%" height="140%">
      <feDropShadow dx="0" dy="18" stdDeviation="22" flood-color="#1f2937" flood-opacity="0.16"/>
    </filter>
  </defs>
  <rect width="1200" height="630" fill="url(#bg)"/>
  <path d="M0 488 C165 406 318 536 510 454 C674 384 803 260 1200 318 L1200 630 L0 630 Z" fill="#dbeafe" opacity="0.72"/>
  <path d="M0 84 C230 42 332 118 540 96 C728 76 856 32 1200 72 L1200 0 L0 0 Z" fill="#ffe4e6" opacity="0.78"/>
  <g transform="translate(102 120)" filter="url(#shadow)">
    <rect width="410" height="338" rx="32" fill="#ffffff"/>
    <text x="38" y="72" font-family="Arial, sans-serif" font-size="34" font-weight="900" fill="#172033">Thailand AI Cloud</text>
    <text x="38" y="112" font-family="Arial, sans-serif" font-size="22" fill="#64748b">2026-2028 investment signal</text>
    <g transform="translate(42 160)">
      <rect width="76" height="76" fill="#f25022"/>
      <rect x="88" width="76" height="76" fill="#7fba00"/>
      <rect y="88" width="76" height="76" fill="#00a4ef"/>
      <rect x="88" y="88" width="76" height="76" fill="#ffb900"/>
    </g>
    <rect x="242" y="164" width="112" height="20" rx="10" fill="#94a3b8"/>
    <rect x="242" y="204" width="78" height="20" rx="10" fill="#94a3b8"/>
    <rect x="242" y="244" width="132" height="20" rx="10" fill="#94a3b8"/>
    <rect x="38" y="296" width="236" height="18" rx="9" fill="url(#ms)"/>
  </g>
  <g transform="translate(592 94)" filter="url(#shadow)">
    <rect width="486" height="392" rx="34" fill="#111827"/>
    <path d="M74 280 C112 210 162 222 206 160 C248 102 320 100 374 166 C416 218 444 250 438 312 C354 350 192 352 74 280 Z" fill="#1f2937" stroke="#334155" stroke-width="6"/>
    <path d="M134 284 C174 236 220 230 260 254 C300 278 348 268 390 302" stroke="#38bdf8" stroke-width="10" fill="none" stroke-linecap="round"/>
    <g fill="#22c55e">
      <circle cx="150" cy="284" r="13"/>
      <circle cx="260" cy="254" r="13"/>
      <circle cx="390" cy="302" r="13"/>
    </g>
    <g stroke="#e5e7eb" stroke-width="4" opacity="0.8">
      <path d="M150 284 L104 330"/>
      <path d="M260 254 L262 338"/>
      <path d="M390 302 L428 348"/>
    </g>
    <text x="54" y="74" font-family="Arial, sans-serif" font-size="30" font-weight="900" fill="#ffffff">Technology + Trust + Talent</text>
    <text x="56" y="114" font-family="Arial, sans-serif" font-size="21" fill="#cbd5e1">cloud region, partners and skills</text>
  </g>
  <text x="104" y="548" font-family="Arial, sans-serif" font-size="44" font-weight="900" fill="#172033">Thailand / SEA Ecosystem</text>
  <text x="106" y="590" font-family="Arial, sans-serif" font-size="24" fill="#475569">Microsoft partnership update and AI infrastructure capability building</text>
</svg>
