<svg xmlns="http://www.w3.org/2000/svg" width="1200" height="630" viewBox="0 0 1200 630" role="img" aria-labelledby="title desc">
  <title id="title">Apple AFM 3 and Siri AI cover</title>
  <desc id="desc">Abstract Apple Intelligence foundation model architecture with on-device and private cloud layers.</desc>
  <defs>
    <linearGradient id="bg" x1="0" y1="0" x2="1" y2="1">
      <stop offset="0" stop-color="#101116"/>
      <stop offset="0.52" stop-color="#1d2430"/>
      <stop offset="1" stop-color="#203c3b"/>
    </linearGradient>
    <linearGradient id="chip" x1="0" y1="0" x2="1" y2="1">
      <stop offset="0" stop-color="#f3f7fb"/>
      <stop offset="0.5" stop-color="#9fd8ff"/>
      <stop offset="1" stop-color="#b7ffdf"/>
    </linearGradient>
    <filter id="softShadow" x="-20%" y="-20%" width="140%" height="140%">
      <feDropShadow dx="0" dy="18" stdDeviation="22" flood-color="#000000" flood-opacity="0.35"/>
    </filter>
  </defs>
  <rect width="1200" height="630" fill="url(#bg)"/>
  <path d="M0 505 C180 445 270 535 430 492 C610 444 708 380 884 421 C1014 451 1100 410 1200 360 L1200 630 L0 630 Z" fill="#0e6b69" opacity="0.38"/>
  <path d="M0 120 C160 180 248 92 415 145 C558 190 676 126 830 86 C960 52 1075 84 1200 132 L1200 0 L0 0 Z" fill="#3156a4" opacity="0.25"/>
  <g opacity="0.45" stroke="#8fd9ff" stroke-width="2">
    <path d="M188 175 L335 235 L470 168 L635 250 L795 188 L990 250"/>
    <path d="M225 420 L388 352 L540 410 L690 330 L840 392 L1012 322"/>
  </g>
  <g fill="#e8fbff">
    <circle cx="188" cy="175" r="7"/>
    <circle cx="335" cy="235" r="7"/>
    <circle cx="470" cy="168" r="7"/>
    <circle cx="635" cy="250" r="7"/>
    <circle cx="795" cy="188" r="7"/>
    <circle cx="990" cy="250" r="7"/>
    <circle cx="225" cy="420" r="7"/>
    <circle cx="388" cy="352" r="7"/>
    <circle cx="540" cy="410" r="7"/>
    <circle cx="690" cy="330" r="7"/>
    <circle cx="840" cy="392" r="7"/>
    <circle cx="1012" cy="322" r="7"/>
  </g>
  <g transform="translate(120 126)" filter="url(#softShadow)">
    <rect x="0" y="0" width="400" height="308" rx="34" fill="#f5f8fb"/>
    <rect x="36" y="42" width="328" height="224" rx="24" fill="url(#chip)"/>
    <g stroke="#243044" stroke-width="8" stroke-linecap="round">
      <path d="M82 112 H318"/>
      <path d="M82 154 H244"/>
      <path d="M82 196 H292"/>
    </g>
    <g fill="#243044">
      <rect x="176" y="-28" width="48" height="28" rx="8"/>
      <rect x="176" y="308" width="48" height="28" rx="8"/>
      <rect x="-28" y="136" width="28" height="48" rx="8"/>
      <rect x="400" y="136" width="28" height="48" rx="8"/>
    </g>
  </g>
  <g transform="translate(650 146)">
    <rect x="0" y="0" width="332" height="208" rx="28" fill="#ffffff" opacity="0.92"/>
    <rect x="34" y="42" width="264" height="34" rx="17" fill="#243044"/>
    <rect x="34" y="96" width="198" height="24" rx="12" fill="#4d8bff"/>
    <rect x="34" y="136" width="238" height="24" rx="12" fill="#16b08f"/>
    <text x="34" y="184" font-family="Arial, Helvetica, sans-serif" font-size="34" font-weight="700" fill="#243044">Siri AI</text>
  </g>
  <text x="120" y="520" font-family="Arial, Helvetica, sans-serif" font-size="60" font-weight="800" fill="#ffffff">Apple AFM 3</text>
  <text x="120" y="570" font-family="Arial, Helvetica, sans-serif" font-size="28" fill="#b9d8e6">On-device models, Private Cloud Compute, and Siri AI</text>
</svg>
