<svg xmlns="http://www.w3.org/2000/svg" width="960" height="480" viewBox="0 0 960 480" fill="none">
  <defs>
    <linearGradient id="bg" x1="70" y1="52" x2="906" y2="428" gradientUnits="userSpaceOnUse">
      <stop stop-color="#180C2E"/>
      <stop offset="1" stop-color="#532170"/>
    </linearGradient>
    <linearGradient id="accent" x1="120" y1="118" x2="402" y2="352" gradientUnits="userSpaceOnUse">
      <stop stop-color="#22E0FF"/>
      <stop offset="1" stop-color="#FF4DD0"/>
    </linearGradient>
  </defs>
  <rect width="960" height="480" rx="28" fill="url(#bg)"/>
  <g opacity="0.12">
    <rect x="62" y="76" width="836" height="328" rx="24" stroke="#FBACFF" stroke-width="2"/>
    <rect x="82" y="96" width="796" height="288" rx="18" stroke="#22E0FF" stroke-width="2"/>
  </g>
  <g>
    <rect x="108" y="146" width="320" height="188" rx="94" fill="#130C26" stroke="url(#accent)" stroke-width="8"/>
    <circle cx="222" cy="240" r="32" fill="#22E0FF"/>
    <circle cx="340" cy="240" r="32" fill="#FF4DD0"/>
    <rect x="186" y="224" width="72" height="12" rx="6" fill="#0E2D39"/>
    <rect x="216" y="194" width="12" height="72" rx="6" fill="#0E2D39"/>
    <circle cx="396" cy="198" r="12" fill="#22E0FF"/>
    <circle cx="420" cy="222" r="12" fill="#22E0FF"/>
    <circle cx="396" cy="246" r="12" fill="#22E0FF"/>
    <circle cx="372" cy="222" r="12" fill="#22E0FF"/>
  </g>
  <g opacity="0.85">
    <rect x="544" y="126" width="116" height="62" rx="16" fill="#22E0FF"/>
    <rect x="680" y="126" width="116" height="62" rx="16" fill="#FF4DD0"/>
    <rect x="816" y="126" width="62" height="62" rx="16" fill="#FFD15C"/>
    <rect x="544" y="210" width="148" height="62" rx="16" fill="#FF4DD0"/>
    <rect x="712" y="210" width="166" height="62" rx="16" fill="#22E0FF"/>
    <rect x="544" y="294" width="334" height="62" rx="16" fill="#2B1A47" stroke="#FBACFF" stroke-width="2"/>
  </g>
  <text x="542" y="90" fill="#FBD4FF" font-family="Helvetica, Arial, sans-serif" font-size="20" font-weight="700" letter-spacing="4">GAMES / CONSUMER</text>
  <text x="540" y="394" fill="white" font-family="Helvetica, Arial, sans-serif" font-size="50" font-weight="800">ID@XBOX</text>
  <text x="542" y="430" fill="#E4DAFF" font-family="Helvetica, Arial, sans-serif" font-size="22" font-weight="500">Game Pass, Play Anywhere, indie momentum</text>
</svg>
