<svg xmlns="http://www.w3.org/2000/svg" width="1200" height="630" viewBox="0 0 1200 630" role="img" aria-labelledby="title desc">
  <title id="title">EXPO REAL Asia Pacific withdrawal cover</title>
  <desc id="desc">Singapore infrastructure skyline, delayed calendar, and investment risk signal for Asia Pacific.</desc>
  <defs>
    <linearGradient id="bg" x1="0" y1="0" x2="1" y2="1">
      <stop offset="0" stop-color="#0f172a"/>
      <stop offset="0.5" stop-color="#25445d"/>
      <stop offset="1" stop-color="#5b1b2a"/>
    </linearGradient>
    <filter id="shadow" x="-20%" y="-20%" width="140%" height="140%">
      <feDropShadow dx="0" dy="18" stdDeviation="18" flood-color="#000000" flood-opacity="0.34"/>
    </filter>
  </defs>
  <rect width="1200" height="630" fill="url(#bg)"/>
  <path d="M0 436 C140 392 260 470 420 430 C570 392 690 326 860 370 C1012 410 1110 338 1200 360 L1200 630 L0 630 Z" fill="#e11d48" opacity="0.2"/>
  <g transform="translate(96 120)" filter="url(#shadow)">
    <rect x="0" y="138" width="82" height="210" rx="10" fill="#e5e7eb"/>
    <rect x="112" y="78" width="96" height="270" rx="12" fill="#cbd5e1"/>
    <rect x="238" y="20" width="118" height="328" rx="14" fill="#f8fafc"/>
    <rect x="386" y="104" width="88" height="244" rx="12" fill="#dbeafe"/>
    <rect x="508" y="152" width="96" height="196" rx="12" fill="#e2e8f0"/>
    <g fill="#0f172a" opacity="0.45">
      <rect x="28" y="172" width="24" height="18" rx="3"/>
      <rect x="28" y="212" width="24" height="18" rx="3"/>
      <rect x="28" y="252" width="24" height="18" rx="3"/>
      <rect x="142" y="116" width="36" height="18" rx="3"/>
      <rect x="142" y="156" width="36" height="18" rx="3"/>
      <rect x="142" y="196" width="36" height="18" rx="3"/>
      <rect x="276" y="64" width="42" height="18" rx="3"/>
      <rect x="276" y="104" width="42" height="18" rx="3"/>
      <rect x="276" y="144" width="42" height="18" rx="3"/>
      <rect x="414" y="144" width="32" height="18" rx="3"/>
      <rect x="414" y="184" width="32" height="18" rx="3"/>
      <rect x="538" y="188" width="36" height="18" rx="3"/>
      <rect x="538" y="228" width="36" height="18" rx="3"/>
    </g>
  </g>
  <g transform="translate(760 118)" filter="url(#shadow)">
    <rect width="260" height="256" rx="28" fill="#ffffff"/>
    <rect width="260" height="70" rx="28" fill="#ef4444"/>
    <rect y="42" width="260" height="42" fill="#ef4444"/>
    <text x="38" y="50" font-family="Arial, Helvetica, sans-serif" font-size="30" font-weight="900" fill="#ffffff">APAC FAIR</text>
    <text x="50" y="150" font-family="Arial, Helvetica, sans-serif" font-size="58" font-weight="900" fill="#0f172a">2026</text>
    <path d="M62 198 H198" stroke="#ef4444" stroke-width="12" stroke-linecap="round"/>
    <path d="M76 182 L184 214" stroke="#ef4444" stroke-width="12" stroke-linecap="round"/>
  </g>
  <text x="96" y="520" font-family="Arial, Helvetica, sans-serif" font-size="56" font-weight="800" fill="#ffffff">EXPO REAL Asia Pacific</text>
  <text x="96" y="570" font-family="Arial, Helvetica, sans-serif" font-size="28" fill="#ffe4e6">Infrastructure investment meets global uncertainty</text>
</svg>
