<svg width="1200" height="630" viewBox="0 0 1200 630" xmlns="http://www.w3.org/2000/svg" role="img" aria-labelledby="title desc">
  <title id="title">Future Games Show cover</title>
  <desc id="desc">Abstract game showcase wall with trailers, controllers, and demo drops.</desc>
  <defs>
    <linearGradient id="bg" x1="0" y1="0" x2="1" y2="1">
      <stop offset="0" stop-color="#18181b"/>
      <stop offset="0.45" stop-color="#4c1d95"/>
      <stop offset="1" stop-color="#0f766e"/>
    </linearGradient>
    <linearGradient id="screen" x1="0" y1="0" x2="1" y2="1">
      <stop offset="0" stop-color="#f0abfc"/>
      <stop offset="1" stop-color="#22d3ee"/>
    </linearGradient>
  </defs>
  <rect width="1200" height="630" fill="url(#bg)"/>
  <path d="M0 520 L1200 330 L1200 630 L0 630 Z" fill="#f0abfc" opacity="0.11"/>
  <g transform="translate(92 96)">
    <rect x="0" y="0" width="318" height="186" rx="20" fill="url(#screen)" opacity="0.92"/>
    <polygon points="118,50 118,136 196,93" fill="#18181b" opacity="0.82"/>
    <rect x="354" y="0" width="220" height="128" rx="18" fill="#e0f2fe" opacity="0.9"/>
    <rect x="610" y="0" width="318" height="186" rx="20" fill="#fde68a" opacity="0.94"/>
    <circle cx="768" cy="93" r="52" fill="#18181b" opacity="0.8"/>
    <rect x="0" y="228" width="230" height="132" rx="18" fill="#ccfbf1" opacity="0.86"/>
    <rect x="266" y="186" width="318" height="174" rx="20" fill="#fef3c7" opacity="0.94"/>
    <path d="M356 278 H494 M425 210 V346" stroke="#18181b" stroke-width="18" stroke-linecap="round" opacity="0.8"/>
    <circle cx="510" cy="250" r="17" fill="#18181b" opacity="0.8"/>
    <circle cx="542" cy="286" r="17" fill="#18181b" opacity="0.8"/>
    <rect x="620" y="228" width="308" height="132" rx="18" fill="#bfdbfe" opacity="0.88"/>
  </g>
  <g fill="none" stroke="#f8fafc" stroke-width="6" opacity="0.72">
    <path d="M120 472 H1060"/>
    <path d="M174 472 V436"/>
    <path d="M270 472 V420"/>
    <path d="M366 472 V448"/>
    <path d="M462 472 V388"/>
    <path d="M558 472 V428"/>
    <path d="M654 472 V404"/>
    <path d="M750 472 V436"/>
    <path d="M846 472 V382"/>
    <path d="M942 472 V420"/>
  </g>
  <text x="100" y="546" fill="#ffffff" font-family="Arial, Helvetica, sans-serif" font-size="50" font-weight="700">40+ Game Reveals</text>
  <text x="100" y="586" fill="#ccfbf1" font-family="Arial, Helvetica, sans-serif" font-size="28" font-weight="700">FUTURE GAMES SHOW - JUNE 6, 2026</text>
  <text x="708" y="546" fill="#fde68a" font-family="Arial, Helvetica, sans-serif" font-size="42" font-weight="700">Demo Drops</text>
</svg>
