<svg xmlns="http://www.w3.org/2000/svg" width="1200" height="630" viewBox="0 0 1200 630" role="img" aria-labelledby="title desc">
  <title id="title">Core42 HSBC AI infrastructure finance cover</title>
  <desc id="desc">Abstract AI data center financing stack with server racks, structured facilities, and global deployment paths.</desc>
  <defs>
    <linearGradient id="bg" x1="0" y1="0" x2="1" y2="1">
      <stop offset="0%" stop-color="#172554"/>
      <stop offset="52%" stop-color="#0f766e"/>
      <stop offset="100%" stop-color="#4a1d0b"/>
    </linearGradient>
    <linearGradient id="rack" x1="0" y1="0" x2="1" y2="1">
      <stop offset="0%" stop-color="#e0f2fe" stop-opacity="0.95"/>
      <stop offset="100%" stop-color="#bae6fd" stop-opacity="0.35"/>
    </linearGradient>
  </defs>
  <rect width="1200" height="630" fill="url(#bg)"/>
  <rect x="78" y="72" width="1044" height="480" rx="30" fill="#020617" opacity="0.5"/>
  <g fill="url(#rack)" stroke="#7dd3fc" stroke-opacity="0.78">
    <rect x="144" y="168" width="150" height="304" rx="18"/>
    <rect x="328" y="128" width="150" height="344" rx="18"/>
    <rect x="512" y="168" width="150" height="304" rx="18"/>
  </g>
  <g fill="#0f172a" opacity="0.78">
    <rect x="170" y="208" width="98" height="20" rx="5"/>
    <rect x="170" y="256" width="98" height="20" rx="5"/>
    <rect x="170" y="304" width="98" height="20" rx="5"/>
    <rect x="170" y="352" width="98" height="20" rx="5"/>
    <rect x="354" y="176" width="98" height="20" rx="5"/>
    <rect x="354" y="224" width="98" height="20" rx="5"/>
    <rect x="354" y="272" width="98" height="20" rx="5"/>
    <rect x="354" y="320" width="98" height="20" rx="5"/>
    <rect x="538" y="208" width="98" height="20" rx="5"/>
    <rect x="538" y="256" width="98" height="20" rx="5"/>
    <rect x="538" y="304" width="98" height="20" rx="5"/>
    <rect x="538" y="352" width="98" height="20" rx="5"/>
  </g>
  <rect x="744" y="144" width="300" height="82" rx="18" fill="#fef3c7"/>
  <rect x="744" y="262" width="300" height="82" rx="18" fill="#ccfbf1"/>
  <rect x="744" y="380" width="300" height="82" rx="18" fill="#dbeafe"/>
  <path d="M662 292 H744 M662 292 C704 218 704 185 744 185 M662 292 C704 366 704 421 744 421" stroke="#f8fafc" stroke-width="7" stroke-linecap="round" fill="none"/>
  <text x="772" y="196" fill="#422006" font-family="Arial, Helvetica, sans-serif" font-size="28" font-weight="900">$550M</text>
  <text x="772" y="314" fill="#064e3b" font-family="Arial, Helvetica, sans-serif" font-size="28" font-weight="900">Trade finance</text>
  <text x="772" y="432" fill="#172554" font-family="Arial, Helvetica, sans-serif" font-size="28" font-weight="900">AI capacity</text>
  <text x="144" y="552" fill="#e0f2fe" font-family="Arial, Helvetica, sans-serif" font-size="22">Hardware / Infrastructure - May 24, 2026</text>
  <text x="144" y="118" fill="#ffffff" font-family="Arial, Helvetica, sans-serif" font-size="48" font-weight="900">Core42 + HSBC</text>
  <text x="744" y="118" fill="#fed7aa" font-family="Arial, Helvetica, sans-serif" font-size="24" font-weight="800">US + Europe deployment</text>
</svg>
