<svg width="1200" height="630" viewBox="0 0 1200 630" fill="none" xmlns="http://www.w3.org/2000/svg">
  <rect width="1200" height="630" fill="#0B1116"/>
  <rect x="34" y="34" width="1132" height="562" rx="28" fill="#111827"/>
  <rect x="88" y="116" width="248" height="306" rx="22" fill="#1F2937" stroke="#F97316" stroke-opacity="0.55"/>
  <rect x="132" y="158" width="160" height="18" rx="9" fill="#FED7AA"/>
  <rect x="132" y="204" width="160" height="18" rx="9" fill="#FDBA74"/>
  <rect x="132" y="250" width="160" height="18" rx="9" fill="#FB923C"/>
  <rect x="132" y="296" width="160" height="18" rx="9" fill="#F97316"/>
  <rect x="132" y="342" width="160" height="18" rx="9" fill="#EA580C"/>
  <rect x="450" y="108" width="300" height="300" rx="40" fill="#0F172A" stroke="#22C55E" stroke-width="6"/>
  <rect x="516" y="174" width="168" height="168" rx="22" fill="#22C55E" fill-opacity="0.18" stroke="#86EFAC" stroke-width="4"/>
  <path d="M450 176H386M450 250H386M450 324H386M750 176H818M750 250H818M750 324H818" stroke="#94A3B8" stroke-width="10" stroke-linecap="round"/>
  <path d="M532 258L584 310L674 206" stroke="#F8FAFC" stroke-width="18" stroke-linecap="round" stroke-linejoin="round"/>
  <rect x="842" y="134" width="244" height="86" rx="22" fill="#172554" stroke="#38BDF8" stroke-opacity="0.54"/>
  <text x="888" y="190" fill="#E0F2FE" font-family="Arial, sans-serif" font-size="34" font-weight="700">+57%</text>
  <rect x="842" y="252" width="244" height="86" rx="22" fill="#1E1B4B" stroke="#A78BFA" stroke-opacity="0.54"/>
  <text x="888" y="308" fill="#EDE9FE" font-family="Arial, sans-serif" font-size="34" font-weight="700">$5.8B</text>
  <path d="M204 472C322 444 434 474 544 454C666 432 744 362 878 390C960 408 1038 454 1110 430" stroke="#38BDF8" stroke-width="8" stroke-linecap="round" stroke-dasharray="16 14"/>
  <text x="86" y="524" fill="#F8FAFC" font-family="Arial, sans-serif" font-size="44" font-weight="700">AMD AI Infrastructure</text>
  <text x="86" y="570" fill="#FDBA74" font-family="Arial, sans-serif" font-size="24">EPYC, Instinct, MI450, Helios, and data center demand</text>
</svg>

