<svg xmlns="http://www.w3.org/2000/svg" width="1200" height="675" viewBox="0 0 1200 675" role="img" aria-labelledby="title desc">
  <title id="title">Tribeca Festival games program cover</title>
  <desc id="desc">Playable games gallery with stage lights, controllers, narrative panels, and festival ticket shapes.</desc>
  <defs>
    <linearGradient id="bg" x1="0" y1="0" x2="1" y2="1">
      <stop offset="0" stop-color="#18181B"/>
      <stop offset="0.5" stop-color="#7C2D12"/>
      <stop offset="1" stop-color="#0E7490"/>
    </linearGradient>
    <linearGradient id="screen" x1="0" y1="0" x2="1" y2="1">
      <stop offset="0" stop-color="#FDE68A"/>
      <stop offset="1" stop-color="#F472B6"/>
    </linearGradient>
  </defs>
  <rect width="1200" height="675" fill="url(#bg)"/>
  <path d="M142 80 L230 80 L190 514 L102 514 Z" fill="#FDE68A" opacity="0.24"/>
  <path d="M1060 80 L970 80 L1012 514 L1102 514 Z" fill="#67E8F9" opacity="0.22"/>
  <rect x="166" y="128" width="868" height="382" rx="28" fill="#111827" opacity="0.88" stroke="#F8FAFC" stroke-opacity="0.22"/>
  <rect x="224" y="174" width="246" height="142" rx="18" fill="url(#screen)"/>
  <rect x="496" y="174" width="246" height="142" rx="18" fill="#0F766E"/>
  <rect x="770" y="174" width="206" height="142" rx="18" fill="#4338CA"/>
  <rect x="224" y="346" width="202" height="96" rx="16" fill="#1F2937" stroke="#FDE68A" stroke-width="4"/>
  <rect x="454" y="346" width="202" height="96" rx="16" fill="#1F2937" stroke="#F472B6" stroke-width="4"/>
  <rect x="684" y="346" width="292" height="96" rx="16" fill="#1F2937" stroke="#67E8F9" stroke-width="4"/>
  <circle cx="305" cy="245" r="31" fill="#111827" opacity="0.55"/>
  <path d="M596 216 L640 245 L596 274 Z" fill="#ECFEFF"/>
  <path d="M860 216 H920 M890 186 V246" stroke="#ECFEFF" stroke-width="16" stroke-linecap="round"/>
  <g fill="#F8FAFC" font-family="Inter, Arial, sans-serif" font-weight="700">
    <text x="257" y="407" font-size="28">12 SELECTIONS</text>
    <text x="488" y="407" font-size="28">PLAYABLE DEMOS</text>
    <text x="720" y="407" font-size="28">STORYTELLING</text>
  </g>
  <path d="M164 562 H1036" stroke="#F8FAFC" stroke-opacity="0.26" stroke-width="4" stroke-dasharray="18 18"/>
  <text x="92" y="610" font-family="Inter, Arial, sans-serif" font-size="42" font-weight="700" fill="#F8FAFC">TRIBECA GAMES 2026</text>
  <text x="92" y="646" font-family="Inter, Arial, sans-serif" font-size="24" fill="#FDE68A">Narrative games move closer to mainstream culture</text>
</svg>
