<svg xmlns="http://www.w3.org/2000/svg" width="1200" height="630" viewBox="0 0 1200 630" role="img" aria-labelledby="title desc">
  <title id="title">Applied Materials Singapore AI chip campus cover</title>
  <desc id="desc">Singapore skyline, semiconductor tool, and AI chip supply chain map for Southeast Asia.</desc>
  <defs>
    <linearGradient id="bg" x1="0" y1="0" x2="1" y2="1">
      <stop offset="0" stop-color="#07151f"/>
      <stop offset="0.5" stop-color="#123f46"/>
      <stop offset="1" stop-color="#4a3526"/>
    </linearGradient>
    <linearGradient id="wafer" x1="0" y1="0" x2="1" y2="1">
      <stop offset="0" stop-color="#7ee7ff"/>
      <stop offset="1" stop-color="#f3c96b"/>
    </linearGradient>
    <filter id="shadow" x="-20%" y="-20%" width="140%" height="140%">
      <feDropShadow dx="0" dy="18" stdDeviation="18" flood-color="#000000" flood-opacity="0.34"/>
    </filter>
  </defs>
  <rect width="1200" height="630" fill="url(#bg)"/>
  <path d="M0 462 C150 390 290 518 448 446 C612 374 742 352 902 414 C1036 466 1116 382 1200 398 L1200 630 L0 630 Z" fill="#7ee7ff" opacity="0.14"/>
  <g transform="translate(110 132)" filter="url(#shadow)">
    <rect width="344" height="244" rx="28" fill="#f8fafc"/>
    <text x="34" y="62" font-family="Arial, Helvetica, sans-serif" font-size="30" font-weight="800" fill="#0f2d37">Singapore</text>
    <rect x="48" y="164" width="34" height="54" fill="#0f766e"/>
    <rect x="98" y="126" width="44" height="92" fill="#155e75"/>
    <rect x="160" y="92" width="52" height="126" fill="#0f766e"/>
    <rect x="234" y="146" width="48" height="72" fill="#155e75"/>
    <path d="M42 224 H298" stroke="#0f2d37" stroke-width="8" stroke-linecap="round"/>
  </g>
  <g transform="translate(532 90)" filter="url(#shadow)">
    <circle cx="150" cy="150" r="138" fill="url(#wafer)"/>
    <g stroke="#0f172a" stroke-width="4" opacity="0.48">
      <path d="M42 150 H258"/>
      <path d="M150 42 V258"/>
      <path d="M72 72 L228 228"/>
      <path d="M228 72 L72 228"/>
      <circle cx="150" cy="150" r="72" fill="none"/>
    </g>
    <rect x="96" y="112" width="108" height="76" rx="16" fill="#0f172a"/>
    <text x="115" y="160" font-family="Arial, Helvetica, sans-serif" font-size="28" font-weight="800" fill="#ffffff">AI</text>
  </g>
  <g transform="translate(850 132)" filter="url(#shadow)">
    <rect width="246" height="244" rx="28" fill="#111827"/>
    <text x="30" y="62" font-family="Arial, Helvetica, sans-serif" font-size="28" font-weight="800" fill="#ffffff">SEA Supply</text>
    <path d="M62 112 H186" stroke="#7ee7ff" stroke-width="10" stroke-linecap="round"/>
    <path d="M62 160 H154" stroke="#f3c96b" stroke-width="10" stroke-linecap="round"/>
    <path d="M62 208 H202" stroke="#a7f3d0" stroke-width="10" stroke-linecap="round"/>
  </g>
  <g stroke="#e9fbff" stroke-width="5" opacity="0.52">
    <path d="M454 254 C486 226 504 220 532 236"/>
    <path d="M808 236 C828 220 836 220 850 246"/>
  </g>
  <text x="110" y="520" font-family="Arial, Helvetica, sans-serif" font-size="56" font-weight="800" fill="#ffffff">Applied Materials Singapore</text>
  <text x="110" y="570" font-family="Arial, Helvetica, sans-serif" font-size="28" fill="#dff7ff">SEA moves deeper into the AI chip equipment chain</text>
</svg>
