<svg xmlns="http://www.w3.org/2000/svg" width="1200" height="630" viewBox="0 0 1200 630" role="img" aria-labelledby="title desc">
  <title id="title">APNIC EmpowerTech Bangkok cover</title>
  <desc id="desc">Southeast Asia digital policy network centered on Bangkok.</desc>
  <defs>
    <linearGradient id="bg" x1="0" y1="0" x2="1" y2="1">
      <stop offset="0" stop-color="#06281f"/>
      <stop offset="0.5" stop-color="#14532d"/>
      <stop offset="1" stop-color="#facc15"/>
    </linearGradient>
  </defs>
  <rect width="1200" height="630" fill="url(#bg)"/>
  <g opacity="0.18" stroke="#ffffff" stroke-width="2" fill="none">
    <path d="M116 510C226 362 328 282 444 268s204 34 320-36 216-62 322 10"/>
    <path d="M110 382C276 332 408 360 532 292s250-160 548-80"/>
    <path d="M160 216C328 282 472 204 620 166s310 6 428 94"/>
  </g>
  <g fill="#ecfdf5" stroke="#064e3b" stroke-width="5">
    <circle cx="250" cy="374" r="28"/>
    <circle cx="420" cy="270" r="30"/>
    <circle cx="590" cy="330" r="34"/>
    <circle cx="766" cy="232" r="28"/>
    <circle cx="936" cy="278" r="30"/>
    <circle cx="680" cy="456" r="28"/>
  </g>
  <g stroke="#d9f99d" stroke-width="7" stroke-linecap="round">
    <path d="M250 374L420 270L590 330L766 232L936 278"/>
    <path d="M590 330L680 456L936 278"/>
  </g>
  <g transform="translate(520 220)">
    <rect x="0" y="0" width="164" height="164" rx="26" fill="#fefce8" stroke="#166534" stroke-width="6"/>
    <path d="M82 28l42 78H40z" fill="#16a34a"/>
    <rect x="54" y="104" width="56" height="34" rx="6" fill="#14532d"/>
  </g>
  <text x="104" y="92" fill="#f7fee7" font-family="Arial, Helvetica, sans-serif" font-size="30" font-weight="700">BANGKOK / MAY 18</text>
  <text x="104" y="545" fill="#f7fee7" font-family="Arial, Helvetica, sans-serif" font-size="64" font-weight="700">EMPOWERTECH</text>
  <text x="104" y="592" fill="#fef08a" font-family="Arial, Helvetica, sans-serif" font-size="34" font-weight="700">SEA DIGITAL DEVELOPMENT</text>
</svg>
