<svg xmlns="http://www.w3.org/2000/svg" width="1200" height="630" viewBox="0 0 1200 630" role="img" aria-labelledby="title desc">
  <title id="title">Fynix AI Shop Southeast Asia merchant agent cover</title>
  <desc id="desc">A Southeast Asia storefront chat assistant connected to an order and payment flow.</desc>
  <defs>
    <linearGradient id="bg" x2="1" y2="1">
      <stop stop-color="#071d1a"/>
      <stop offset="0.55" stop-color="#0f3e39"/>
      <stop offset="1" stop-color="#07161d"/>
    </linearGradient>
    <linearGradient id="accent" x2="1">
      <stop stop-color="#2dd4bf"/>
      <stop offset="1" stop-color="#fbbf24"/>
    </linearGradient>
  </defs>
  <rect width="1200" height="630" fill="url(#bg)"/>
  <text x="68" y="94" fill="#5eead4" font-family="Arial, Helvetica, sans-serif" font-size="21" font-weight="700">THAILAND / SEA ECOSYSTEM</text>
  <text x="68" y="165" fill="#f8fafc" font-family="Arial, Helvetica, sans-serif" font-size="56" font-weight="800">FYNIX AI SHOP</text>
  <text x="68" y="207" fill="#ccfbf1" font-family="Arial, Helvetica, sans-serif" font-size="25">Merchant agent: chat to transaction</text>
  <g transform="translate(82 290)">
    <path d="M0 43 L36 0 H330 L366 43 V73 H0 Z" fill="#fbbf24"/>
    <rect y="73" width="366" height="190" rx="8" fill="#f8fafc"/>
    <rect x="36" y="115" width="111" height="148" fill="#0f766e"/>
    <rect x="184" y="110" width="143" height="85" fill="#ccfbf1" stroke="#14b8a6" stroke-width="3"/>
    <path d="M202 129 H306 M202 151 H278" stroke="#0f766e" stroke-width="8" stroke-linecap="round"/>
    <text x="193" y="181" fill="#0f766e" font-family="Arial, Helvetica, sans-serif" font-size="13" font-weight="700">AI CHAT</text>
  </g>
  <path d="M492 406 H604" stroke="url(#accent)" stroke-width="8" stroke-dasharray="14 10"/>
  <g transform="translate(622 286)">
    <rect width="218" height="234" rx="26" fill="#071f25" stroke="#2dd4bf" stroke-width="3"/>
    <rect x="26" y="38" width="166" height="50" rx="13" fill="#123f43"/>
    <rect x="26" y="107" width="130" height="50" rx="13" fill="#0f766e"/>
    <path d="M44 60 H166 M44 128 H126" stroke="#ccfbf1" stroke-width="7" stroke-linecap="round"/>
    <circle cx="108" cy="195" r="12" fill="#2dd4bf"/>
  </g>
  <path d="M862 406 H930" stroke="url(#accent)" stroke-width="8" stroke-dasharray="14 10"/>
  <g transform="translate(950 337)">
    <rect width="188" height="134" rx="18" fill="#123f43" stroke="#fbbf24" stroke-width="3"/>
    <text x="28" y="52" fill="#f8fafc" font-family="Arial, Helvetica, sans-serif" font-size="18">ORDER</text>
    <text x="28" y="91" fill="#fbbf24" font-family="Arial, Helvetica, sans-serif" font-size="27" font-weight="800">PAYMENT</text>
  </g>
  <text x="68" y="588" fill="#cbd5e1" font-family="Arial, Helvetica, sans-serif" font-size="20">Singapore release | May 22 announcement | SEA merchants</text>
</svg>
