<svg xmlns="http://www.w3.org/2000/svg" width="1280" height="720" viewBox="0 0 1280 720" role="img" aria-labelledby="title desc">
  <title id="title">NVIDIA OpenAI Ohio data center financing cover</title>
  <desc id="desc">A large AI data center campus connected to financing, power, and GPU supply lines.</desc>
  <defs>
    <linearGradient id="sky" x1="0" y1="0" x2="0" y2="1">
      <stop offset="0" stop-color="#14213d"/>
      <stop offset="0.55" stop-color="#283618"/>
      <stop offset="1" stop-color="#0f172a"/>
    </linearGradient>
    <linearGradient id="building" x1="0" y1="0" x2="1" y2="1">
      <stop offset="0" stop-color="#e5e7eb"/>
      <stop offset="1" stop-color="#94a3b8"/>
    </linearGradient>
    <linearGradient id="cash" x1="0" y1="0" x2="1" y2="1">
      <stop offset="0" stop-color="#bef264"/>
      <stop offset="1" stop-color="#22c55e"/>
    </linearGradient>
    <filter id="shadow" x="-20%" y="-20%" width="140%" height="140%">
      <feDropShadow dx="0" dy="20" stdDeviation="20" flood-color="#020617" flood-opacity="0.45"/>
    </filter>
  </defs>
  <rect width="1280" height="720" fill="url(#sky)"/>
  <path d="M0 540C150 500 280 520 418 482C570 441 720 472 860 438C1015 400 1134 426 1280 378V720H0Z" fill="#1f2937"/>
  <g opacity="0.24" stroke="#fde68a" stroke-width="3">
    <path d="M92 120H1188M92 200H1188M92 280H1188"/>
    <path d="M180 70V350M340 70V350M500 70V350M660 70V350M820 70V350M980 70V350M1140 70V350"/>
  </g>
  <g filter="url(#shadow)">
    <rect x="120" y="385" width="300" height="155" rx="12" fill="url(#building)"/>
    <rect x="470" y="335" width="360" height="205" rx="12" fill="url(#building)"/>
    <rect x="880" y="370" width="280" height="170" rx="12" fill="url(#building)"/>
    <g fill="#0f172a" opacity="0.85">
      <rect x="152" y="420" width="48" height="26" rx="4"/><rect x="224" y="420" width="48" height="26" rx="4"/><rect x="296" y="420" width="48" height="26" rx="4"/>
      <rect x="152" y="470" width="48" height="26" rx="4"/><rect x="224" y="470" width="48" height="26" rx="4"/><rect x="296" y="470" width="48" height="26" rx="4"/>
      <rect x="520" y="382" width="54" height="28" rx="4"/><rect x="600" y="382" width="54" height="28" rx="4"/><rect x="680" y="382" width="54" height="28" rx="4"/>
      <rect x="520" y="438" width="54" height="28" rx="4"/><rect x="600" y="438" width="54" height="28" rx="4"/><rect x="680" y="438" width="54" height="28" rx="4"/>
      <rect x="520" y="494" width="54" height="28" rx="4"/><rect x="600" y="494" width="54" height="28" rx="4"/><rect x="680" y="494" width="54" height="28" rx="4"/>
      <rect x="920" y="412" width="48" height="26" rx="4"/><rect x="992" y="412" width="48" height="26" rx="4"/><rect x="1064" y="412" width="48" height="26" rx="4"/>
      <rect x="920" y="470" width="48" height="26" rx="4"/><rect x="992" y="470" width="48" height="26" rx="4"/><rect x="1064" y="470" width="48" height="26" rx="4"/>
    </g>
    <rect x="440" y="92" width="400" height="146" rx="26" fill="#0b1220" stroke="#84cc16" stroke-width="4"/>
    <text x="640" y="150" fill="#f8fafc" text-anchor="middle" font-family="Arial, Helvetica, sans-serif" font-size="42" font-weight="800">$250B BACKSTOP</text>
    <text x="640" y="196" fill="#bbf7d0" text-anchor="middle" font-family="Arial, Helvetica, sans-serif" font-size="25">10GW Ohio AI data center</text>
    <rect x="78" y="98" width="250" height="112" rx="22" fill="url(#cash)"/>
    <text x="203" y="145" fill="#052e16" text-anchor="middle" font-family="Arial, Helvetica, sans-serif" font-size="32" font-weight="800">NVIDIA</text>
    <text x="203" y="183" fill="#14532d" text-anchor="middle" font-family="Arial, Helvetica, sans-serif" font-size="21">balance sheet</text>
    <rect x="952" y="98" width="250" height="112" rx="22" fill="#dbeafe"/>
    <text x="1077" y="145" fill="#1e3a8a" text-anchor="middle" font-family="Arial, Helvetica, sans-serif" font-size="32" font-weight="800">OpenAI</text>
    <text x="1077" y="183" fill="#1d4ed8" text-anchor="middle" font-family="Arial, Helvetica, sans-serif" font-size="21">compute lease</text>
  </g>
  <g stroke-linecap="round" stroke-linejoin="round" stroke-width="9" fill="none">
    <path d="M328 154H440" stroke="#bef264"/>
    <path d="M840 154H952" stroke="#bfdbfe"/>
    <path d="M640 238V330" stroke="#fde68a"/>
    <path d="M760 540L1020 620" stroke="#60a5fa"/>
    <path d="M520 540L260 620" stroke="#60a5fa"/>
  </g>
  <g fill="#fde68a" font-family="Arial, Helvetica, sans-serif" font-weight="800">
    <text x="80" y="664" font-size="29">AI INFRASTRUCTURE NOW NEEDS CAPITAL INFRASTRUCTURE</text>
    <text x="1112" y="664" font-size="20" fill="#cbd5e1">July 2026</text>
  </g>
</svg>
