<svg width="1200" height="630" viewBox="0 0 1200 630" xmlns="http://www.w3.org/2000/svg" role="img" aria-labelledby="title desc">
  <title id="title">K25 AI APAC prediction market cover</title>
  <desc id="desc">Abstract livestream prediction market interface for APAC creator and AI ecosystem.</desc>
  <defs>
    <linearGradient id="bg" x1="0" y1="0" x2="1" y2="1">
      <stop offset="0" stop-color="#14532d"/>
      <stop offset="0.5" stop-color="#0f766e"/>
      <stop offset="1" stop-color="#7c2d12"/>
    </linearGradient>
  </defs>
  <rect width="1200" height="630" fill="url(#bg)"/>
  <path d="M0 82 C160 132 278 46 430 100 C602 160 724 84 890 118 C1030 146 1114 98 1200 74 L1200 0 L0 0 Z" fill="#fbbf24" opacity="0.15"/>
  <rect x="84" y="92" width="470" height="396" rx="30" fill="#ecfeff" opacity="0.92"/>
  <rect x="124" y="132" width="390" height="220" rx="22" fill="#0f172a"/>
  <polygon points="280,190 280,294 372,242" fill="#34d399"/>
  <rect x="124" y="382" width="180" height="28" rx="14" fill="#0f766e" opacity="0.86"/>
  <rect x="124" y="430" width="260" height="28" rx="14" fill="#14b8a6" opacity="0.7"/>
  <rect x="610" y="116" width="406" height="82" rx="18" fill="#fef3c7" opacity="0.96"/>
  <text x="638" y="168" fill="#0f172a" font-family="Arial, Helvetica, sans-serif" font-size="38" font-weight="700">US$6M Strategic Stake</text>
  <g transform="translate(612 244)">
    <rect x="0" y="0" width="110" height="150" rx="16" fill="#ecfeff" opacity="0.9"/>
    <rect x="142" y="38" width="110" height="112" rx="16" fill="#fef3c7" opacity="0.92"/>
    <rect x="284" y="-28" width="110" height="178" rx="16" fill="#bbf7d0" opacity="0.94"/>
    <path d="M26 98 L54 58 L84 92" fill="none" stroke="#0f766e" stroke-width="8" stroke-linecap="round" stroke-linejoin="round"/>
    <path d="M168 98 L198 66 L224 86" fill="none" stroke="#0f766e" stroke-width="8" stroke-linecap="round" stroke-linejoin="round"/>
    <path d="M310 106 L338 42 L368 70" fill="none" stroke="#0f766e" stroke-width="8" stroke-linecap="round" stroke-linejoin="round"/>
  </g>
  <g fill="#fef3c7" opacity="0.9">
    <circle cx="952" cy="420" r="18"/>
    <circle cx="1012" cy="464" r="14"/>
    <circle cx="900" cy="486" r="14"/>
  </g>
  <g stroke="#fef3c7" stroke-width="5" opacity="0.65">
    <path d="M952 420 L1012 464 L900 486 Z" fill="none"/>
  </g>
  <text x="84" y="552" fill="#ecfeff" font-family="Arial, Helvetica, sans-serif" font-size="48" font-weight="700">APAC Watch-to-Predict AI</text>
  <text x="84" y="592" fill="#fef3c7" font-family="Arial, Helvetica, sans-serif" font-size="28" font-weight="700">THAILAND / SEA ECOSYSTEM - JUNE 2026</text>
</svg>
