<svg xmlns="http://www.w3.org/2000/svg" width="1200" height="630" viewBox="0 0 1200 630" role="img" aria-labelledby="title desc">
  <title id="title">LEGO Batman launch cover</title>
  <desc id="desc">Stylized LEGO brick Gotham skyline with bat signal, co-op bricks, and May 22 launch marker.</desc>
  <defs>
    <linearGradient id="bg" x1="0" y1="0" x2="1" y2="1">
      <stop offset="0%" stop-color="#0f172a"/>
      <stop offset="45%" stop-color="#312e81"/>
      <stop offset="100%" stop-color="#111827"/>
    </linearGradient>
    <radialGradient id="signal" cx="50%" cy="35%" r="45%">
      <stop offset="0%" stop-color="#fde68a" stop-opacity="0.95"/>
      <stop offset="100%" stop-color="#fde68a" stop-opacity="0"/>
    </radialGradient>
  </defs>
  <rect width="1200" height="630" fill="url(#bg)"/>
  <circle cx="846" cy="158" r="188" fill="url(#signal)"/>
  <path d="M763 163 C805 123 886 123 929 163 C901 155 879 168 856 188 C833 168 810 155 763 163 Z" fill="#111827"/>
  <rect x="92" y="402" width="1016" height="150" fill="#020617" opacity="0.62"/>
  <rect x="128" y="318" width="94" height="234" fill="#111827" stroke="#475569"/>
  <rect x="254" y="260" width="126" height="292" fill="#111827" stroke="#475569"/>
  <rect x="420" y="348" width="104" height="204" fill="#111827" stroke="#475569"/>
  <rect x="560" y="286" width="140" height="266" fill="#111827" stroke="#475569"/>
  <rect x="742" y="336" width="112" height="216" fill="#111827" stroke="#475569"/>
  <rect x="890" y="276" width="162" height="276" fill="#111827" stroke="#475569"/>
  <g fill="#facc15">
    <rect x="158" y="356" width="26" height="26" rx="5"/>
    <rect x="288" y="302" width="26" height="26" rx="5"/>
    <rect x="335" y="302" width="26" height="26" rx="5"/>
    <rect x="595" y="330" width="26" height="26" rx="5"/>
    <rect x="642" y="330" width="26" height="26" rx="5"/>
    <rect x="931" y="316" width="26" height="26" rx="5"/>
    <rect x="984" y="316" width="26" height="26" rx="5"/>
  </g>
  <rect x="120" y="116" width="330" height="116" rx="18" fill="#facc15"/>
  <circle cx="168" cy="116" r="22" fill="#fde047"/>
  <circle cx="244" cy="116" r="22" fill="#fde047"/>
  <circle cx="320" cy="116" r="22" fill="#fde047"/>
  <circle cx="396" cy="116" r="22" fill="#fde047"/>
  <text x="150" y="172" fill="#111827" font-family="Arial, Helvetica, sans-serif" font-size="34" font-weight="900">LEGO BATMAN</text>
  <text x="150" y="213" fill="#111827" font-family="Arial, Helvetica, sans-serif" font-size="26" font-weight="800">Launch Day</text>
  <text x="122" y="586" fill="#fef3c7" font-family="Arial, Helvetica, sans-serif" font-size="22">Games / Consumer - May 22, 2026</text>
  <text x="120" y="292" fill="#ffffff" font-family="Arial, Helvetica, sans-serif" font-size="46" font-weight="900">Open-world Gotham</text>
  <text x="120" y="342" fill="#c7d2fe" font-family="Arial, Helvetica, sans-serif" font-size="28" font-weight="700">TT Games, Warner Bros. Games, DC</text>
</svg>
