<svg xmlns="http://www.w3.org/2000/svg" width="1200" height="630" viewBox="0 0 1200 630" role="img" aria-labelledby="title desc">
  <title id="title">NVIDIA AI factory demand cover</title>
  <desc id="desc">Rack-scale AI factory illustration with compute racks, networking lines, and revenue metrics.</desc>
  <defs>
    <linearGradient id="bg" x1="0" y1="0" x2="1" y2="1">
      <stop offset="0%" stop-color="#052e16"/>
      <stop offset="52%" stop-color="#14532d"/>
      <stop offset="100%" stop-color="#111827"/>
    </linearGradient>
    <linearGradient id="rack" x1="0" y1="0" x2="0" y2="1">
      <stop offset="0%" stop-color="#bbf7d0" stop-opacity="0.28"/>
      <stop offset="100%" stop-color="#86efac" stop-opacity="0.08"/>
    </linearGradient>
  </defs>
  <rect width="1200" height="630" fill="url(#bg)"/>
  <rect x="82" y="84" width="1036" height="462" rx="30" fill="#020617" opacity="0.5"/>
  <g stroke="#86efac" stroke-width="3" opacity="0.55">
    <path d="M236 464 C390 310 526 444 680 284 C808 152 918 236 1010 148"/>
    <path d="M236 406 C390 306 526 366 680 238 C812 132 912 180 1010 122"/>
  </g>
  <g>
    <rect x="140" y="166" width="120" height="288" rx="12" fill="url(#rack)" stroke="#bbf7d0"/>
    <rect x="292" y="126" width="120" height="328" rx="12" fill="url(#rack)" stroke="#bbf7d0"/>
    <rect x="444" y="188" width="120" height="266" rx="12" fill="url(#rack)" stroke="#bbf7d0"/>
    <rect x="596" y="108" width="120" height="346" rx="12" fill="url(#rack)" stroke="#bbf7d0"/>
    <rect x="748" y="152" width="120" height="302" rx="12" fill="url(#rack)" stroke="#bbf7d0"/>
  </g>
  <g fill="#dcfce7" opacity="0.9">
    <rect x="162" y="196" width="76" height="12" rx="6"/>
    <rect x="162" y="234" width="76" height="12" rx="6"/>
    <rect x="162" y="272" width="76" height="12" rx="6"/>
    <rect x="314" y="158" width="76" height="12" rx="6"/>
    <rect x="314" y="196" width="76" height="12" rx="6"/>
    <rect x="314" y="234" width="76" height="12" rx="6"/>
    <rect x="466" y="220" width="76" height="12" rx="6"/>
    <rect x="466" y="258" width="76" height="12" rx="6"/>
    <rect x="618" y="142" width="76" height="12" rx="6"/>
    <rect x="618" y="180" width="76" height="12" rx="6"/>
    <rect x="770" y="184" width="76" height="12" rx="6"/>
    <rect x="770" y="222" width="76" height="12" rx="6"/>
  </g>
  <rect x="888" y="158" width="184" height="130" rx="18" fill="#16a34a" opacity="0.92"/>
  <text x="918" y="206" fill="#052e16" font-family="Arial, Helvetica, sans-serif" font-size="28" font-weight="800">$75.2B</text>
  <text x="918" y="246" fill="#052e16" font-family="Arial, Helvetica, sans-serif" font-size="22" font-weight="700">Data Center</text>
  <rect x="888" y="326" width="184" height="92" rx="18" fill="#f8fafc" opacity="0.9"/>
  <text x="918" y="363" fill="#14532d" font-family="Arial, Helvetica, sans-serif" font-size="28" font-weight="800">AI Factory</text>
  <text x="918" y="397" fill="#14532d" font-family="Arial, Helvetica, sans-serif" font-size="22" font-weight="700">Q1 FY2027</text>
  <text x="128" y="562" fill="#dcfce7" font-family="Arial, Helvetica, sans-serif" font-size="54" font-weight="800">NVIDIA infrastructure demand</text>
  <text x="128" y="596" fill="#bbf7d0" font-family="Arial, Helvetica, sans-serif" font-size="22">Hardware / Infrastructure - May 21, 2026</text>
</svg>
