<svg width="1200" height="675" viewBox="0 0 1200 675" fill="none" xmlns="http://www.w3.org/2000/svg">
  <rect width="1200" height="675" fill="#0A1117"/>
  <rect x="50" y="52" width="1100" height="571" rx="30" fill="#101820"/>
  <path d="M190 334H1010" stroke="#334155" stroke-width="6" stroke-linecap="round"/>
  <path d="M328 230V444" stroke="#334155" stroke-width="6" stroke-linecap="round"/>
  <path d="M600 174V498" stroke="#334155" stroke-width="6" stroke-linecap="round"/>
  <path d="M872 230V444" stroke="#334155" stroke-width="6" stroke-linecap="round"/>
  <circle cx="600" cy="334" r="96" fill="#0F766E"/>
  <circle cx="600" cy="334" r="62" fill="#14B8A6"/>
  <path d="M566 334H634M600 300V368" stroke="#ECFEFF" stroke-width="18" stroke-linecap="round"/>
  <rect x="142" y="178" width="250" height="104" rx="22" fill="#1E293B" stroke="#38BDF8" stroke-width="4"/>
  <rect x="142" y="388" width="250" height="104" rx="22" fill="#1E293B" stroke="#FBBF24" stroke-width="4"/>
  <rect x="808" y="178" width="250" height="104" rx="22" fill="#1E293B" stroke="#A78BFA" stroke-width="4"/>
  <rect x="808" y="388" width="250" height="104" rx="22" fill="#1E293B" stroke="#FB7185" stroke-width="4"/>
  <rect x="182" y="212" width="62" height="36" rx="10" fill="#38BDF8"/>
  <rect x="270" y="214" width="78" height="14" rx="7" fill="#E0F2FE"/>
  <rect x="270" y="244" width="54" height="12" rx="6" fill="#94A3B8"/>
  <rect x="182" y="420" width="62" height="40" rx="12" fill="#FBBF24"/>
  <rect x="270" y="424" width="82" height="14" rx="7" fill="#FEF3C7"/>
  <rect x="270" y="454" width="48" height="12" rx="6" fill="#94A3B8"/>
  <rect x="848" y="212" width="62" height="36" rx="10" fill="#A78BFA"/>
  <rect x="936" y="214" width="78" height="14" rx="7" fill="#EDE9FE"/>
  <rect x="936" y="244" width="54" height="12" rx="6" fill="#94A3B8"/>
  <rect x="848" y="420" width="62" height="40" rx="12" fill="#FB7185"/>
  <rect x="936" y="424" width="82" height="14" rx="7" fill="#FFE4E6"/>
  <rect x="936" y="454" width="48" height="12" rx="6" fill="#94A3B8"/>
  <path d="M410 334H496" stroke="#14B8A6" stroke-width="10" stroke-linecap="round"/>
  <path d="M704 334H790" stroke="#14B8A6" stroke-width="10" stroke-linecap="round"/>
  <path d="M600 220V250" stroke="#14B8A6" stroke-width="10" stroke-linecap="round"/>
  <path d="M600 418V450" stroke="#14B8A6" stroke-width="10" stroke-linecap="round"/>
  <text x="94" y="560" fill="#F8FAFC" font-family="Arial, sans-serif" font-size="48" font-weight="700">SAP Autonomous Enterprise</text>
  <text x="94" y="606" fill="#99F6E4" font-family="Arial, sans-serif" font-size="25">agents, business context, governance, and runtime control</text>
</svg>
