<svg width="1200" height="630" viewBox="0 0 1200 630" xmlns="http://www.w3.org/2000/svg" role="img" aria-labelledby="title desc">
  <title id="title">SoftBank France AI data center capacity cover</title>
  <desc id="desc">Abstract European AI data center campus with power grid lines and rack blocks.</desc>
  <rect width="1200" height="630" fill="#08111A"/>
  <path d="M0 500C170 432 276 452 420 498C588 552 738 538 910 464C1038 408 1138 410 1200 430V630H0Z" fill="#123524"/>
  <rect x="92" y="130" width="242" height="318" rx="18" fill="#14213D" stroke="#FACC15" stroke-width="3"/>
  <rect x="374" y="94" width="242" height="354" rx="18" fill="#1F2937" stroke="#60A5FA" stroke-width="3"/>
  <rect x="656" y="158" width="190" height="290" rx="18" fill="#111827" stroke="#34D399" stroke-width="3"/>
  <rect x="888" y="112" width="220" height="336" rx="18" fill="#172554" stroke="#F87171" stroke-width="3"/>
  <g fill="#E5E7EB" opacity=".72">
    <rect x="126" y="170" width="174" height="18" rx="4"/>
    <rect x="126" y="214" width="174" height="18" rx="4"/>
    <rect x="126" y="258" width="174" height="18" rx="4"/>
    <rect x="410" y="140" width="170" height="18" rx="4"/>
    <rect x="410" y="184" width="170" height="18" rx="4"/>
    <rect x="410" y="228" width="170" height="18" rx="4"/>
    <rect x="690" y="204" width="122" height="18" rx="4"/>
    <rect x="690" y="248" width="122" height="18" rx="4"/>
    <rect x="924" y="158" width="148" height="18" rx="4"/>
    <rect x="924" y="202" width="148" height="18" rx="4"/>
  </g>
  <path d="M215 448V524M495 448V524M751 448V524M998 448V524" stroke="#FDE68A" stroke-width="8" stroke-linecap="round"/>
  <path d="M215 524H998" stroke="#FDE68A" stroke-width="8" stroke-linecap="round"/>
  <circle cx="215" cy="524" r="16" fill="#FACC15"/>
  <circle cx="495" cy="524" r="16" fill="#FACC15"/>
  <circle cx="751" cy="524" r="16" fill="#FACC15"/>
  <circle cx="998" cy="524" r="16" fill="#FACC15"/>
  <text x="94" y="72" fill="#F8FAFC" font-family="Arial, sans-serif" font-size="40" font-weight="700">5 GW AI Data Center Capacity</text>
  <text x="94" y="578" fill="#D9F99D" font-family="Arial, sans-serif" font-size="26">France buildout: power, sites, manufacturing, skills</text>
</svg>
