<svg xmlns="http://www.w3.org/2000/svg" width="960" height="480" viewBox="0 0 960 480" fill="none">
  <defs>
    <linearGradient id="bg" x1="44" y1="42" x2="916" y2="444" gradientUnits="userSpaceOnUse">
      <stop stop-color="#0A1733"/>
      <stop offset="1" stop-color="#1E4F8C"/>
    </linearGradient>
    <linearGradient id="link" x1="136" y1="150" x2="426" y2="324" gradientUnits="userSpaceOnUse">
      <stop stop-color="#6BE7FF"/>
      <stop offset="1" stop-color="#9FE870"/>
    </linearGradient>
  </defs>
  <rect width="960" height="480" rx="28" fill="url(#bg)"/>
  <g opacity="0.12" stroke="#BDEBFF">
    <path d="M56 86H904"/>
    <path d="M56 152H904"/>
    <path d="M56 218H904"/>
    <path d="M56 284H904"/>
    <path d="M56 350H904"/>
    <path d="M56 416H904"/>
  </g>
  <g>
    <rect x="112" y="134" width="132" height="132" rx="32" fill="#0D2444" stroke="#6BE7FF" stroke-width="4"/>
    <rect x="304" y="134" width="132" height="132" rx="32" fill="#102C4D" stroke="#9FE870" stroke-width="4"/>
    <path d="M240 200H304" stroke="url(#link)" stroke-width="12" stroke-linecap="round"/>
    <circle cx="178" cy="200" r="32" fill="#6BE7FF" fill-opacity="0.18" stroke="#6BE7FF" stroke-width="6"/>
    <circle cx="370" cy="200" r="32" fill="#9FE870" fill-opacity="0.18" stroke="#9FE870" stroke-width="6"/>
    <path d="M162 200H194" stroke="#6BE7FF" stroke-width="8" stroke-linecap="round"/>
    <path d="M370 184V216" stroke="#9FE870" stroke-width="8" stroke-linecap="round"/>
    <path d="M354 200H386" stroke="#9FE870" stroke-width="8" stroke-linecap="round"/>
  </g>
  <g opacity="0.92">
    <rect x="532" y="118" width="150" height="54" rx="14" fill="#6BE7FF"/>
    <rect x="700" y="118" width="168" height="54" rx="14" fill="#9FE870"/>
    <rect x="532" y="192" width="336" height="54" rx="14" fill="#163664" stroke="#BDEBFF" stroke-width="2"/>
    <rect x="532" y="266" width="336" height="54" rx="14" fill="#163664" stroke="#BDEBFF" stroke-width="2"/>
    <rect x="532" y="340" width="336" height="54" rx="14" fill="#163664" stroke="#BDEBFF" stroke-width="2"/>
  </g>
  <text x="532" y="90" fill="#D6F6FF" font-family="Helvetica, Arial, sans-serif" font-size="20" font-weight="700" letter-spacing="4">GLOBAL / AI</text>
  <text x="532" y="372" fill="white" font-family="Helvetica, Arial, sans-serif" font-size="46" font-weight="800">OPENAI x MICROSOFT</text>
  <text x="532" y="410" fill="#D6F6FF" font-family="Helvetica, Arial, sans-serif" font-size="22" font-weight="500">primary partner, non-exclusive future</text>
</svg>
