<svg xmlns="http://www.w3.org/2000/svg" width="1200" height="630" viewBox="0 0 1200 630" role="img" aria-labelledby="title desc">
  <title id="title">AirTrunk Singapore REIT IPO cover</title>
  <desc id="desc">Abstract Singapore skyline, data center racks, and capital-market chart for AI infrastructure.</desc>
  <defs>
    <linearGradient id="bg" x1="0" y1="0" x2="1" y2="1">
      <stop offset="0" stop-color="#09212a"/>
      <stop offset="0.48" stop-color="#12404c"/>
      <stop offset="1" stop-color="#2d4931"/>
    </linearGradient>
    <linearGradient id="rack" x1="0" y1="0" x2="1" y2="1">
      <stop offset="0" stop-color="#e6fbff"/>
      <stop offset="1" stop-color="#9be7c3"/>
    </linearGradient>
    <filter id="shadow" x="-20%" y="-20%" width="140%" height="140%">
      <feDropShadow dx="0" dy="18" stdDeviation="18" flood-color="#000000" flood-opacity="0.35"/>
    </filter>
  </defs>
  <rect width="1200" height="630" fill="url(#bg)"/>
  <path d="M0 420 C150 372 270 455 430 394 C590 334 735 384 870 332 C1022 274 1110 310 1200 276 L1200 630 L0 630 Z" fill="#0f6c73" opacity="0.45"/>
  <g transform="translate(106 120)" filter="url(#shadow)">
    <rect x="0" y="0" width="124" height="278" rx="18" fill="url(#rack)"/>
    <rect x="164" y="42" width="124" height="236" rx="18" fill="url(#rack)"/>
    <rect x="328" y="-24" width="124" height="302" rx="18" fill="url(#rack)"/>
    <g fill="#123039">
      <rect x="28" y="44" width="68" height="16" rx="8"/>
      <rect x="28" y="90" width="68" height="16" rx="8"/>
      <rect x="28" y="136" width="68" height="16" rx="8"/>
      <rect x="192" y="88" width="68" height="16" rx="8"/>
      <rect x="192" y="134" width="68" height="16" rx="8"/>
      <rect x="192" y="180" width="68" height="16" rx="8"/>
      <rect x="356" y="24" width="68" height="16" rx="8"/>
      <rect x="356" y="70" width="68" height="16" rx="8"/>
      <rect x="356" y="116" width="68" height="16" rx="8"/>
    </g>
  </g>
  <g transform="translate(650 126)">
    <rect x="0" y="0" width="360" height="248" rx="28" fill="#ffffff" opacity="0.92"/>
    <path d="M48 178 L118 130 L182 146 L256 76 L314 108" fill="none" stroke="#0f7a5c" stroke-width="12" stroke-linecap="round" stroke-linejoin="round"/>
    <circle cx="118" cy="130" r="12" fill="#0f7a5c"/>
    <circle cx="256" cy="76" r="12" fill="#0f7a5c"/>
    <text x="48" y="62" font-family="Arial, Helvetica, sans-serif" font-size="36" font-weight="800" fill="#123039">S$1.5B</text>
    <text x="48" y="220" font-family="Arial, Helvetica, sans-serif" font-size="28" fill="#34545c">Singapore REIT IPO</text>
  </g>
  <text x="106" y="520" font-family="Arial, Helvetica, sans-serif" font-size="56" font-weight="800" fill="#ffffff">AirTrunk Singapore REIT</text>
  <text x="106" y="570" font-family="Arial, Helvetica, sans-serif" font-size="28" fill="#c8f5df">AI data centers become a SEA capital-market asset</text>
</svg>
