<svg xmlns="http://www.w3.org/2000/svg" width="1200" height="630" viewBox="0 0 1200 630" role="img" aria-labelledby="title desc">
  <title id="title">L'Oreal SAPMENA startup program cover</title>
  <desc id="desc">Beauty technology startup ecosystem map across Southeast Asia</desc>
  <defs>
    <linearGradient id="bg" x1="0" y1="0" x2="1" y2="1">
      <stop offset="0" stop-color="#fce6e6"/>
      <stop offset="0.48" stop-color="#f7f0ff"/>
      <stop offset="1" stop-color="#e4f5f1"/>
    </linearGradient>
  </defs>
  <rect width="1200" height="630" fill="url(#bg)"/>
  <rect x="88" y="80" width="1024" height="444" rx="34" fill="#ffffff" opacity="0.9"/>
  <circle cx="310" cy="300" r="126" fill="#ff6f91" opacity="0.88"/>
  <circle cx="482" cy="222" r="86" fill="#ffd166" opacity="0.9"/>
  <circle cx="580" cy="370" r="110" fill="#4ecdc4" opacity="0.86"/>
  <circle cx="754" cy="260" r="98" fill="#7d6bff" opacity="0.82"/>
  <circle cx="900" cy="368" r="92" fill="#2f9e72" opacity="0.82"/>
  <path d="M308 300C408 238 488 236 582 368S754 258 900 368" fill="none" stroke="#1f2833" stroke-width="12" stroke-linecap="round" stroke-linejoin="round" opacity="0.85"/>
  <g fill="#1f2833">
    <circle cx="310" cy="300" r="14"/>
    <circle cx="482" cy="222" r="14"/>
    <circle cx="580" cy="370" r="14"/>
    <circle cx="754" cy="260" r="14"/>
    <circle cx="900" cy="368" r="14"/>
  </g>
  <rect x="230" y="156" width="204" height="44" rx="22" fill="#1f2833"/>
  <rect x="690" y="430" width="248" height="44" rx="22" fill="#1f2833"/>
  <text x="332" y="186" fill="#ffffff" font-family="Arial, sans-serif" font-size="22" font-weight="700" text-anchor="middle">AI Commerce</text>
  <text x="814" y="460" fill="#ffffff" font-family="Arial, sans-serif" font-size="22" font-weight="700" text-anchor="middle">Startup Pilots</text>
  <text x="88" y="578" fill="#1f2833" font-family="Arial, sans-serif" font-size="30" font-weight="700">Thailand / SEA Ecosystem</text>
  <text x="1112" y="578" fill="#1f2833" font-family="Arial, sans-serif" font-size="30" font-weight="700" text-anchor="end">May 14, 2026</text>
</svg>
