<svg xmlns="http://www.w3.org/2000/svg" width="1200" height="630" viewBox="0 0 1200 630" role="img" aria-labelledby="title desc">
  <title id="title">UK AI Hardware Plan cover</title>
  <desc id="desc">AI chip, compute racks, and British sovereign compute infrastructure.</desc>
  <defs>
    <linearGradient id="bg" x1="0" y1="0" x2="1" y2="1">
      <stop offset="0" stop-color="#071525"/>
      <stop offset="0.45" stop-color="#18325c"/>
      <stop offset="1" stop-color="#2b1f4f"/>
    </linearGradient>
    <linearGradient id="chip" x1="0" y1="0" x2="1" y2="1">
      <stop offset="0" stop-color="#f8fcff"/>
      <stop offset="1" stop-color="#61d7ff"/>
    </linearGradient>
    <filter id="shadow" x="-20%" y="-20%" width="140%" height="140%">
      <feDropShadow dx="0" dy="16" stdDeviation="18" flood-color="#000000" flood-opacity="0.38"/>
    </filter>
  </defs>
  <rect width="1200" height="630" fill="url(#bg)"/>
  <path d="M-80 110 L1200 520" stroke="#ffffff" stroke-width="54" opacity="0.08"/>
  <path d="M-40 500 L1200 112" stroke="#ff345f" stroke-width="42" opacity="0.18"/>
  <path d="M560 -40 V680" stroke="#ffffff" stroke-width="34" opacity="0.07"/>
  <path d="M-30 304 H1230" stroke="#ff345f" stroke-width="30" opacity="0.12"/>
  <g transform="translate(118 124)" filter="url(#shadow)">
    <rect x="0" y="0" width="420" height="330" rx="30" fill="#eaf5ff"/>
    <rect x="52" y="54" width="316" height="222" rx="22" fill="url(#chip)"/>
    <g stroke="#17325c" stroke-width="7" stroke-linecap="round">
      <path d="M102 118 H318"/>
      <path d="M102 162 H278"/>
      <path d="M102 206 H334"/>
    </g>
    <g fill="#17325c">
      <rect x="87" y="-24" width="34" height="24" rx="6"/>
      <rect x="155" y="-24" width="34" height="24" rx="6"/>
      <rect x="223" y="-24" width="34" height="24" rx="6"/>
      <rect x="291" y="-24" width="34" height="24" rx="6"/>
      <rect x="87" y="330" width="34" height="24" rx="6"/>
      <rect x="155" y="330" width="34" height="24" rx="6"/>
      <rect x="223" y="330" width="34" height="24" rx="6"/>
      <rect x="291" y="330" width="34" height="24" rx="6"/>
    </g>
  </g>
  <g transform="translate(660 116)">
    <rect x="0" y="0" width="120" height="310" rx="18" fill="#0d1d34" stroke="#79d6ff" stroke-width="3"/>
    <rect x="150" y="34" width="120" height="276" rx="18" fill="#0d1d34" stroke="#79d6ff" stroke-width="3"/>
    <rect x="300" y="78" width="120" height="232" rx="18" fill="#0d1d34" stroke="#79d6ff" stroke-width="3"/>
    <g fill="#79d6ff">
      <rect x="28" y="44" width="64" height="16" rx="8"/>
      <rect x="28" y="88" width="64" height="16" rx="8"/>
      <rect x="28" y="132" width="64" height="16" rx="8"/>
      <rect x="178" y="78" width="64" height="16" rx="8"/>
      <rect x="178" y="122" width="64" height="16" rx="8"/>
      <rect x="178" y="166" width="64" height="16" rx="8"/>
      <rect x="328" y="122" width="64" height="16" rx="8"/>
      <rect x="328" y="166" width="64" height="16" rx="8"/>
      <rect x="328" y="210" width="64" height="16" rx="8"/>
    </g>
  </g>
  <text x="118" y="524" font-family="Arial, Helvetica, sans-serif" font-size="58" font-weight="800" fill="#ffffff">UK AI Hardware Plan</text>
  <text x="118" y="572" font-family="Arial, Helvetica, sans-serif" font-size="28" fill="#b8dcff">Chips, sovereign compute, and a national AI supercomputer</text>
  <text x="900" y="552" font-family="Arial, Helvetica, sans-serif" font-size="52" font-weight="800" fill="#ffffff">£1.1B</text>
</svg>
