<svg xmlns="http://www.w3.org/2000/svg" width="1200" height="630" viewBox="0 0 1200 630" role="img" aria-labelledby="title desc">
  <title id="title">Little Nightmares III The Backstage DLC</title>
  <desc id="desc">A dark theatrical backstage scene with curtains, tiny silhouettes, and a carnival sign for an article about Little Nightmares III The Backstage.</desc>
  <defs>
    <linearGradient id="bg" x1="0" y1="0" x2="0" y2="1">
      <stop offset="0" stop-color="#120914"/>
      <stop offset="0.52" stop-color="#26101f"/>
      <stop offset="1" stop-color="#09090b"/>
    </linearGradient>
    <linearGradient id="curtain" x1="0" y1="0" x2="1" y2="0">
      <stop offset="0" stop-color="#4c0519"/>
      <stop offset="0.5" stop-color="#991b1b"/>
      <stop offset="1" stop-color="#4c0519"/>
    </linearGradient>
    <radialGradient id="spot" cx="0.5" cy="0.35" r="0.55">
      <stop offset="0" stop-color="#fde68a" stop-opacity="0.45"/>
      <stop offset="1" stop-color="#fde68a" stop-opacity="0"/>
    </radialGradient>
  </defs>
  <rect width="1200" height="630" fill="url(#bg)"/>
  <ellipse cx="610" cy="286" rx="430" ry="250" fill="url(#spot)"/>
  <path d="M0 0c60 80 110 160 108 630H0z" fill="url(#curtain)"/>
  <path d="M1200 0c-60 80-110 160-108 630h108z" fill="url(#curtain)"/>
  <path d="M0 0h1200v82c-132 58-260 71-390 39-155-37-269-36-420 0C258 153 130 140 0 82z" fill="#7f1d1d"/>
  <g opacity="0.3" stroke="#fecaca" stroke-width="3">
    <path d="M76 0c48 176 38 379 15 630"/>
    <path d="M1122 0c-48 176-38 379-15 630"/>
    <path d="M220 0c12 120 8 250-14 390"/>
    <path d="M980 0c-12 120-8 250 14 390"/>
  </g>
  <g transform="translate(398 126)">
    <rect x="0" y="0" width="405" height="112" rx="24" fill="#111827" stroke="#fbbf24" stroke-width="6"/>
    <circle cx="45" cy="56" r="12" fill="#fef3c7"/>
    <circle cx="112" cy="56" r="12" fill="#fef3c7"/>
    <circle cx="293" cy="56" r="12" fill="#fef3c7"/>
    <circle cx="360" cy="56" r="12" fill="#fef3c7"/>
    <text x="202" y="68" text-anchor="middle" font-family="Georgia, serif" font-size="38" font-weight="700" fill="#fef3c7">BACKSTAGE</text>
  </g>
  <g transform="translate(480 340)" fill="#020617">
    <ellipse cx="132" cy="176" rx="128" ry="24" opacity="0.7"/>
    <path d="M74 104c0-42 24-78 58-78s58 36 58 78v74H74z"/>
    <circle cx="132" cy="28" r="30"/>
    <path d="M84 96l-50 60M180 96l54 58" stroke="#020617" stroke-width="22" stroke-linecap="round"/>
    <circle cx="120" cy="28" r="5" fill="#facc15"/>
    <circle cx="144" cy="28" r="5" fill="#facc15"/>
  </g>
  <g opacity="0.7" fill="#fbbf24">
    <circle cx="264" cy="254" r="5"/>
    <circle cx="920" cy="310" r="4"/>
    <circle cx="340" cy="440" r="3"/>
    <circle cx="842" cy="206" r="5"/>
    <circle cx="636" cy="120" r="3"/>
  </g>
  <g font-family="Inter, Arial, sans-serif" fill="#f8fafc">
    <text x="74" y="86" font-size="28" font-weight="700" letter-spacing="3">GAMES / CONSUMER</text>
    <text x="74" y="545" font-size="61" font-weight="800">THE BACKSTAGE</text>
    <text x="74" y="596" font-size="34" font-weight="700" fill="#fde68a">LITTLE NIGHTMARES III DLC</text>
  </g>
</svg>
