<svg xmlns="http://www.w3.org/2000/svg" width="1200" height="630" viewBox="0 0 1200 630" role="img" aria-labelledby="title desc">
  <title id="title">ScreenDNA AI biosecurity cover</title>
  <desc id="desc">DNA sequence screening gate with AI model signal and biosecurity controls.</desc>
  <defs>
    <linearGradient id="bg" x1="0" y1="0" x2="1" y2="1">
      <stop offset="0" stop-color="#071318"/>
      <stop offset="0.48" stop-color="#123b3f"/>
      <stop offset="1" stop-color="#45315c"/>
    </linearGradient>
    <linearGradient id="strand" x1="0" y1="0" x2="1" y2="1">
      <stop offset="0" stop-color="#70f0c4"/>
      <stop offset="1" stop-color="#f3d47c"/>
    </linearGradient>
    <filter id="shadow" x="-20%" y="-20%" width="140%" height="140%">
      <feDropShadow dx="0" dy="18" stdDeviation="18" flood-color="#000000" flood-opacity="0.34"/>
    </filter>
  </defs>
  <rect width="1200" height="630" fill="url(#bg)"/>
  <path d="M0 468 C140 402 286 520 438 450 C600 376 728 360 890 424 C1032 480 1112 372 1200 398 L1200 630 L0 630 Z" fill="#70f0c4" opacity="0.16"/>
  <g transform="translate(104 104)" filter="url(#shadow)">
    <rect width="414" height="330" rx="30" fill="#f8fffb"/>
    <text x="38" y="64" font-family="Arial, Helvetica, sans-serif" font-size="30" font-weight="800" fill="#0f2d2d">DNA Order</text>
    <path d="M92 112 C182 152 248 152 338 112" fill="none" stroke="url(#strand)" stroke-width="13" stroke-linecap="round"/>
    <path d="M92 240 C182 200 248 200 338 240" fill="none" stroke="url(#strand)" stroke-width="13" stroke-linecap="round"/>
    <g stroke="#0f766e" stroke-width="6" stroke-linecap="round" opacity="0.85">
      <path d="M122 126 L122 226"/>
      <path d="M170 140 L170 212"/>
      <path d="M218 148 L218 204"/>
      <path d="M266 140 L266 212"/>
      <path d="M314 126 L314 226"/>
    </g>
    <rect x="38" y="272" width="338" height="34" rx="17" fill="#dffcf2"/>
    <text x="58" y="296" font-family="Arial, Helvetica, sans-serif" font-size="20" font-weight="800" fill="#0f766e">sequence + customer screening</text>
  </g>
  <g transform="translate(622 122)" filter="url(#shadow)">
    <rect width="372" height="292" rx="30" fill="#111827"/>
    <text x="38" y="64" font-family="Arial, Helvetica, sans-serif" font-size="30" font-weight="800" fill="#ffffff">AI Risk Gate</text>
    <rect x="48" y="102" width="276" height="48" rx="14" fill="#263348"/>
    <rect x="48" y="170" width="218" height="48" rx="14" fill="#263348"/>
    <rect x="48" y="238" width="308" height="24" rx="12" fill="#70f0c4" opacity="0.7"/>
    <circle cx="314" cy="194" r="36" fill="#f3d47c"/>
    <path d="M300 194 L312 206 L332 178" fill="none" stroke="#111827" stroke-width="8" stroke-linecap="round" stroke-linejoin="round"/>
  </g>
  <g stroke="#eafff7" stroke-width="4" opacity="0.5">
    <path d="M520 260 H622"/>
    <path d="M568 226 V294"/>
  </g>
  <text x="104" y="520" font-family="Arial, Helvetica, sans-serif" font-size="56" font-weight="800" fill="#ffffff">ScreenDNA and AI Biosecurity</text>
  <text x="104" y="570" font-family="Arial, Helvetica, sans-serif" font-size="28" fill="#dffcf2">Mandatory screening moves AI governance into the biology supply chain</text>
</svg>
