<svg xmlns="http://www.w3.org/2000/svg" width="1200" height="630" viewBox="0 0 1200 630" role="img" aria-labelledby="title desc">
  <title id="title">AI biosecurity and gene synthesis screening</title>
  <desc id="desc">A stylized DNA helix, shield, and AI node network for an article about mandatory nucleic acid synthesis screening.</desc>
  <defs>
    <linearGradient id="bg" x1="0" y1="0" x2="1" y2="1">
      <stop offset="0" stop-color="#07111f"/>
      <stop offset="0.55" stop-color="#103047"/>
      <stop offset="1" stop-color="#1f3c2f"/>
    </linearGradient>
    <linearGradient id="helix" x1="0" y1="0" x2="1" y2="0">
      <stop offset="0" stop-color="#7dd3fc"/>
      <stop offset="1" stop-color="#86efac"/>
    </linearGradient>
    <filter id="softGlow" x="-20%" y="-20%" width="140%" height="140%">
      <feGaussianBlur stdDeviation="8" result="blur"/>
      <feMerge>
        <feMergeNode in="blur"/>
        <feMergeNode in="SourceGraphic"/>
      </feMerge>
    </filter>
  </defs>
  <rect width="1200" height="630" fill="url(#bg)"/>
  <circle cx="1030" cy="120" r="180" fill="#22c55e" opacity="0.11"/>
  <circle cx="160" cy="545" r="220" fill="#38bdf8" opacity="0.12"/>
  <g opacity="0.18" stroke="#d8f3ff" stroke-width="1">
    <path d="M0 120H1200M0 240H1200M0 360H1200M0 480H1200"/>
    <path d="M160 0V630M320 0V630M480 0V630M640 0V630M800 0V630M960 0V630"/>
  </g>
  <g transform="translate(120 110)" filter="url(#softGlow)">
    <path d="M130 35c170 70 170 350 0 420" fill="none" stroke="url(#helix)" stroke-width="18" stroke-linecap="round"/>
    <path d="M380 35c-170 70-170 350 0 420" fill="none" stroke="url(#helix)" stroke-width="18" stroke-linecap="round"/>
    <g stroke="#c7f9ff" stroke-width="8" stroke-linecap="round">
      <path d="M172 92h166"/>
      <path d="M139 172h232"/>
      <path d="M139 252h232"/>
      <path d="M172 332h166"/>
      <path d="M222 412h66"/>
    </g>
    <g fill="#f8fafc">
      <circle cx="130" cy="35" r="14"/>
      <circle cx="380" cy="35" r="14"/>
      <circle cx="130" cy="455" r="14"/>
      <circle cx="380" cy="455" r="14"/>
    </g>
  </g>
  <g transform="translate(705 118)">
    <path d="M170 0l150 54v122c0 94-54 169-150 224C74 345 20 270 20 176V54z" fill="#f8fafc" opacity="0.92"/>
    <path d="M170 48l98 36v90c0 59-33 108-98 148-65-40-98-89-98-148V84z" fill="#0f766e"/>
    <circle cx="170" cy="158" r="46" fill="#a7f3d0"/>
    <path d="M145 158h50M170 133v50" stroke="#064e3b" stroke-width="14" stroke-linecap="round"/>
    <g fill="#7dd3fc" stroke="#e0f2fe" stroke-width="4">
      <circle cx="32" cy="26" r="16"/>
      <circle cx="330" cy="48" r="13"/>
      <circle cx="326" cy="278" r="16"/>
      <circle cx="16" cy="300" r="12"/>
    </g>
    <g stroke="#93c5fd" stroke-width="5" opacity="0.85">
      <path d="M48 34l72 68"/>
      <path d="M320 60l-70 62"/>
      <path d="M310 270l-80-42"/>
      <path d="M30 292l86-76"/>
    </g>
  </g>
  <g font-family="Inter, Arial, sans-serif" fill="#f8fafc">
    <text x="74" y="86" font-size="28" font-weight="700" letter-spacing="3">GLOBAL / AI</text>
    <text x="74" y="530" font-size="58" font-weight="800">GENE SYNTHESIS</text>
    <text x="74" y="586" font-size="38" font-weight="700" fill="#a7f3d0">SCREENING BECOMES AI SAFETY POLICY</text>
  </g>
</svg>
