<svg xmlns="http://www.w3.org/2000/svg" width="960" height="480" viewBox="0 0 960 480" fill="none">
  <defs>
    <linearGradient id="bg" x1="56" y1="40" x2="904" y2="438" gradientUnits="userSpaceOnUse">
      <stop stop-color="#1B140A"/>
      <stop offset="1" stop-color="#6B4718"/>
    </linearGradient>
    <linearGradient id="map" x1="126" y1="118" x2="410" y2="356" gradientUnits="userSpaceOnUse">
      <stop stop-color="#FFD76A"/>
      <stop offset="1" stop-color="#FF8E42"/>
    </linearGradient>
  </defs>
  <rect width="960" height="480" rx="28" fill="url(#bg)"/>
  <g opacity="0.12" stroke="#FFE5B0">
    <path d="M62 88H898"/>
    <path d="M62 154H898"/>
    <path d="M62 220H898"/>
    <path d="M62 286H898"/>
    <path d="M62 352H898"/>
    <path d="M62 418H898"/>
  </g>
  <g>
    <path d="M180 132L228 154L220 194L266 212L278 254L238 292L194 286L170 254L136 236L146 188L174 170L180 132Z" fill="url(#map)"/>
    <path d="M294 224L326 238L338 268L316 290L286 276L280 246L294 224Z" fill="#FFB85C"/>
    <circle cx="220" cy="222" r="16" fill="#FFF1D2"/>
    <circle cx="326" cy="262" r="12" fill="#FFF1D2"/>
    <path d="M220 222L326 262" stroke="#FFF1D2" stroke-width="5" stroke-linecap="round"/>
    <rect x="112" y="324" width="300" height="28" rx="14" fill="#3C2710"/>
    <rect x="130" y="332" width="84" height="12" rx="6" fill="#FFD76A"/>
    <rect x="224" y="332" width="84" height="12" rx="6" fill="#FFB85C"/>
    <rect x="318" y="332" width="76" height="12" rx="6" fill="#FFD76A"/>
  </g>
  <g opacity="0.92">
    <rect x="540" y="124" width="144" height="58" rx="16" fill="#FFD76A"/>
    <rect x="702" y="124" width="170" height="58" rx="16" fill="#FF8E42"/>
    <rect x="540" y="208" width="332" height="58" rx="16" fill="#4B2F12" stroke="#FFE5B0" stroke-width="2"/>
    <rect x="540" y="292" width="332" height="58" rx="16" fill="#4B2F12" stroke="#FFE5B0" stroke-width="2"/>
  </g>
  <text x="540" y="92" fill="#FFF0CF" font-family="Helvetica, Arial, sans-serif" font-size="20" font-weight="700" letter-spacing="4">THAILAND / SEA ECOSYSTEM</text>
  <text x="540" y="388" fill="white" font-family="Helvetica, Arial, sans-serif" font-size="48" font-weight="800">DATA x AI THAILAND</text>
  <text x="540" y="424" fill="#FFF0CF" font-family="Helvetica, Arial, sans-serif" font-size="22" font-weight="500">research, policy and commercialization</text>
</svg>
