<svg xmlns="http://www.w3.org/2000/svg" width="1200" height="630" viewBox="0 0 1200 630" role="img" aria-labelledby="title desc">
  <title id="title">TensorWave AMD neocloud cover</title>
  <desc id="desc">AI data center racks with orange liquid cooling loops representing AMD cloud infrastructure.</desc>
  <defs>
    <linearGradient id="bg" x1="0" y1="0" x2="1" y2="1">
      <stop offset="0" stop-color="#0b1117"/>
      <stop offset="0.55" stop-color="#1b2636"/>
      <stop offset="1" stop-color="#5a2a12"/>
    </linearGradient>
    <filter id="shadow" x="-20%" y="-20%" width="140%" height="140%">
      <feDropShadow dx="0" dy="16" stdDeviation="16" flood-color="#000000" flood-opacity="0.38"/>
    </filter>
  </defs>
  <rect width="1200" height="630" fill="url(#bg)"/>
  <path d="M0 104 C152 70 264 142 412 104 C560 68 720 78 872 122 C1015 164 1108 100 1200 76 L1200 0 L0 0 Z" fill="#ff8a1f" opacity="0.16"/>
  <g transform="translate(96 104)" filter="url(#shadow)">
    <rect width="690" height="330" rx="24" fill="#111827"/>
    <g transform="translate(36 38)">
      <rect width="112" height="254" rx="12" fill="#222b38"/>
      <rect x="148" width="112" height="254" rx="12" fill="#222b38"/>
      <rect x="296" width="112" height="254" rx="12" fill="#222b38"/>
      <rect x="444" width="112" height="254" rx="12" fill="#222b38"/>
      <rect x="592" width="62" height="254" rx="12" fill="#222b38"/>
      <g fill="#cfd7e5">
        <rect x="20" y="30" width="72" height="16" rx="4"/>
        <rect x="20" y="66" width="72" height="16" rx="4"/>
        <rect x="20" y="102" width="72" height="16" rx="4"/>
        <rect x="20" y="138" width="72" height="16" rx="4"/>
        <rect x="168" y="30" width="72" height="16" rx="4"/>
        <rect x="168" y="66" width="72" height="16" rx="4"/>
        <rect x="168" y="102" width="72" height="16" rx="4"/>
        <rect x="168" y="138" width="72" height="16" rx="4"/>
        <rect x="316" y="30" width="72" height="16" rx="4"/>
        <rect x="316" y="66" width="72" height="16" rx="4"/>
        <rect x="316" y="102" width="72" height="16" rx="4"/>
        <rect x="316" y="138" width="72" height="16" rx="4"/>
        <rect x="464" y="30" width="72" height="16" rx="4"/>
        <rect x="464" y="66" width="72" height="16" rx="4"/>
        <rect x="464" y="102" width="72" height="16" rx="4"/>
        <rect x="464" y="138" width="72" height="16" rx="4"/>
      </g>
      <g fill="none" stroke="#ff8a1f" stroke-width="8" stroke-linecap="round">
        <path d="M42 0 C42 46 78 52 78 98"/>
        <path d="M190 0 C190 46 226 52 226 98"/>
        <path d="M338 0 C338 46 374 52 374 98"/>
        <path d="M486 0 C486 46 522 52 522 98"/>
        <path d="M116 254 C116 202 84 195 84 152"/>
        <path d="M264 254 C264 202 232 195 232 152"/>
        <path d="M412 254 C412 202 380 195 380 152"/>
        <path d="M560 254 C560 202 528 195 528 152"/>
      </g>
    </g>
  </g>
  <g transform="translate(846 128)" filter="url(#shadow)">
    <rect width="258" height="180" rx="26" fill="#f8fafc"/>
    <text x="38" y="74" font-family="Arial, Helvetica, sans-serif" font-size="44" font-weight="900" fill="#0f172a">AMD</text>
    <text x="38" y="124" font-family="Arial, Helvetica, sans-serif" font-size="34" font-weight="800" fill="#f97316">Neocloud</text>
  </g>
  <text x="96" y="520" font-family="Arial, Helvetica, sans-serif" font-size="58" font-weight="800" fill="#ffffff">TensorWave Series B</text>
  <text x="96" y="570" font-family="Arial, Helvetica, sans-serif" font-size="28" fill="#ffd0a8">$350M for AMD-only AI cloud infrastructure</text>
</svg>
