<svg xmlns="http://www.w3.org/2000/svg" width="1200" height="630" viewBox="0 0 1200 630" role="img" aria-labelledby="title desc">
  <title id="title">OpenAI sensitive context safety cover</title>
  <desc id="desc">Layered conversation timeline with safety context signals and a shield</desc>
  <defs>
    <linearGradient id="bg" x1="0" y1="0" x2="1" y2="1">
      <stop offset="0" stop-color="#eef7f4"/>
      <stop offset="1" stop-color="#e6edf7"/>
    </linearGradient>
    <linearGradient id="panel" x1="0" y1="0" x2="1" y2="1">
      <stop offset="0" stop-color="#fefefe"/>
      <stop offset="1" stop-color="#f2f6f8"/>
    </linearGradient>
  </defs>
  <rect width="1200" height="630" fill="url(#bg)"/>
  <rect x="70" y="58" width="1060" height="514" rx="34" fill="#16332f"/>
  <rect x="116" y="104" width="590" height="366" rx="28" fill="url(#panel)"/>
  <rect x="756" y="104" width="288" height="366" rx="28" fill="#e6f0ef"/>
  <line x1="184" y1="168" x2="184" y2="404" stroke="#6e8f89" stroke-width="10" stroke-linecap="round"/>
  <circle cx="184" cy="170" r="24" fill="#2a6f68"/>
  <circle cx="184" cy="260" r="24" fill="#e0a54b"/>
  <circle cx="184" cy="352" r="24" fill="#c95f54"/>
  <rect x="240" y="145" width="360" height="40" rx="18" fill="#d7e8e4"/>
  <rect x="240" y="235" width="404" height="40" rx="18" fill="#f0dfba"/>
  <rect x="240" y="327" width="316" height="40" rx="18" fill="#eed3cf"/>
  <path d="M836 156l106 42v78c0 64-42 116-106 142-64-26-106-78-106-142v-78z" fill="#16332f"/>
  <path d="M798 278l30 30 72-82" fill="none" stroke="#f7fbf9" stroke-width="18" stroke-linecap="round" stroke-linejoin="round"/>
  <path d="M706 260c58 0 74-62 126-62" fill="none" stroke="#2a6f68" stroke-width="12" stroke-linecap="round"/>
  <path d="M706 352c48 0 82 42 126 42" fill="none" stroke="#c95f54" stroke-width="12" stroke-linecap="round"/>
  <text x="116" y="530" fill="#f7fbf9" font-family="Arial, sans-serif" font-size="36" font-weight="700">OpenAI safety context</text>
  <text x="1084" y="530" fill="#f7fbf9" font-family="Arial, sans-serif" font-size="30" font-weight="700" text-anchor="end">Global / AI</text>
  <text x="1084" y="568" fill="#c8d8d4" font-family="Arial, sans-serif" font-size="24" text-anchor="end">May 15, 2026</text>
</svg>
