<svg width="1200" height="630" viewBox="0 0 1200 630" xmlns="http://www.w3.org/2000/svg" role="img" aria-labelledby="title desc">
  <title id="title">EA FC 26 The World's Game cover</title>
  <desc id="desc">Football tournament bracket and pitch lights for a consumer gaming news story.</desc>
  <rect width="1200" height="630" fill="#092016"/>
  <rect x="75" y="72" width="1050" height="486" rx="26" fill="#0F3D2E" stroke="#86EFAC" stroke-width="4"/>
  <rect x="130" y="128" width="940" height="374" rx="18" fill="none" stroke="#BBF7D0" stroke-width="4"/>
  <circle cx="600" cy="315" r="76" fill="none" stroke="#BBF7D0" stroke-width="4"/>
  <path d="M600 128V502M130 315H1070" stroke="#BBF7D0" stroke-width="4"/>
  <circle cx="600" cy="315" r="42" fill="#F8FAFC"/>
  <path d="M584 283L621 292L631 327L604 351L566 339L556 304Z" fill="#111827"/>
  <path d="M264 196H396M264 266H396M264 336H396M264 406H396M804 196H936M804 266H936M804 336H936M804 406H936" stroke="#FDE68A" stroke-width="10" stroke-linecap="round"/>
  <path d="M396 196H470V266H396M396 336H470V406H396M804 196H730V266H804M804 336H730V406H804" fill="none" stroke="#FDE68A" stroke-width="8" stroke-linecap="round" stroke-linejoin="round"/>
  <text x="118" y="60" fill="#F8FAFC" font-family="Arial, sans-serif" font-size="38" font-weight="700">EA SPORTS FC 26</text>
  <text x="118" y="594" fill="#DCFCE7" font-family="Arial, sans-serif" font-size="28">The World's Game: 48-team tournament mode</text>
</svg>
