<svg width="1200" height="630" viewBox="0 0 1200 630" fill="none" xmlns="http://www.w3.org/2000/svg">
  <rect width="1200" height="630" fill="#07121D"/>
  <rect x="30" y="30" width="1140" height="570" rx="30" fill="url(#bg)"/>
  <rect x="84" y="122" width="226" height="324" rx="22" fill="#0F172A" stroke="#38BDF8" stroke-opacity="0.4"/>
  <rect x="340" y="92" width="168" height="354" rx="22" fill="#111827" stroke="#F59E0B" stroke-opacity="0.36"/>
  <rect x="536" y="144" width="168" height="302" rx="22" fill="#0F172A" stroke="#A78BFA" stroke-opacity="0.36"/>
  <rect x="732" y="104" width="364" height="342" rx="22" fill="#111827" stroke="#34D399" stroke-opacity="0.36"/>
  <rect x="118" y="164" width="56" height="216" rx="10" fill="#1D4ED8"/>
  <rect x="186" y="198" width="56" height="182" rx="10" fill="#2563EB"/>
  <rect x="374" y="132" width="100" height="18" rx="9" fill="#FCD34D"/>
  <path d="M126 412H1086" stroke="#60A5FA" stroke-width="6" stroke-linecap="round" stroke-dasharray="12 10"/>
  <path d="M784 336L850 294L920 326L988 248L1046 278" stroke="#4ADE80" stroke-width="12" stroke-linecap="round" stroke-linejoin="round"/>
  <circle cx="784" cy="336" r="9" fill="#4ADE80"/>
  <circle cx="850" cy="294" r="9" fill="#4ADE80"/>
  <circle cx="920" cy="326" r="9" fill="#4ADE80"/>
  <circle cx="988" cy="248" r="9" fill="#4ADE80"/>
  <circle cx="1046" cy="278" r="9" fill="#4ADE80"/>
  <rect x="770" y="150" width="154" height="16" rx="8" fill="#A7F3D0"/>
  <rect x="770" y="178" width="198" height="12" rx="6" fill="#E2E8F0" fill-opacity="0.85"/>
  <rect x="770" y="202" width="172" height="12" rx="6" fill="#CBD5E1" fill-opacity="0.65"/>
  <text x="84" y="520" fill="#F8FAFC" font-family="Arial, sans-serif" font-size="44" font-weight="700">Hut 8 Beacon Point Lease</text>
  <text x="84" y="566" fill="#BFDBFE" font-family="Arial, sans-serif" font-size="24">352 MW, power-first infrastructure, and AI factory economics</text>
  <defs>
    <linearGradient id="bg" x1="68" y1="42" x2="1124" y2="590" gradientUnits="userSpaceOnUse">
      <stop stop-color="#0F172A"/>
      <stop offset="0.56" stop-color="#10233B"/>
      <stop offset="1" stop-color="#0B1320"/>
    </linearGradient>
  </defs>
</svg>
