<svg xmlns="http://www.w3.org/2000/svg" width="1200" height="630" viewBox="0 0 1200 630" role="img" aria-labelledby="title desc">
  <title id="title">CLICX virtual bank Thailand cover</title>
  <desc id="desc">Thai virtual bank ecosystem with mobile banking, data signals, and inclusion nodes</desc>
  <defs>
    <linearGradient id="bg" x1="0" y1="0" x2="1" y2="1">
      <stop offset="0" stop-color="#f5eef7"/>
      <stop offset="1" stop-color="#e8f5f2"/>
    </linearGradient>
    <linearGradient id="panel" x1="0" y1="0" x2="1" y2="1">
      <stop offset="0" stop-color="#26304f"/>
      <stop offset="1" stop-color="#226164"/>
    </linearGradient>
  </defs>
  <rect width="1200" height="630" fill="url(#bg)"/>
  <rect x="72" y="58" width="1056" height="514" rx="34" fill="url(#panel)"/>
  <rect x="164" y="120" width="300" height="390" rx="42" fill="#edf7f5"/>
  <rect x="196" y="168" width="236" height="54" rx="18" fill="#d7e8e6"/>
  <rect x="196" y="252" width="236" height="34" rx="17" fill="#f1c96f"/>
  <rect x="196" y="310" width="178" height="34" rx="17" fill="#adcfd0"/>
  <rect x="196" y="368" width="214" height="34" rx="17" fill="#d59aa0"/>
  <circle cx="314" cy="450" r="26" fill="#26304f"/>
  <path d="M464 316h172M636 316c28 0 44-34 72-34M636 316c28 0 44 34 72 34" fill="none" stroke="#edf7f5" stroke-width="12" stroke-linecap="round"/>
  <circle cx="760" cy="282" r="52" fill="#f1c96f"/>
  <circle cx="760" cy="350" r="52" fill="#d59aa0"/>
  <circle cx="914" cy="316" r="72" fill="#edf7f5"/>
  <path d="M884 320l24 24 54-66" fill="none" stroke="#226164" stroke-width="15" stroke-linecap="round" stroke-linejoin="round"/>
  <text x="914" y="430" fill="#edf7f5" font-family="Arial, sans-serif" font-size="28" font-weight="700" text-anchor="middle">Virtual Bank</text>
  <text x="116" y="524" fill="#f9fbfb" font-family="Arial, sans-serif" font-size="36" font-weight="700">CLICX license</text>
  <text x="1084" y="524" fill="#f9fbfb" font-family="Arial, sans-serif" font-size="30" font-weight="700" text-anchor="end">Thailand / SEA</text>
  <text x="1084" y="562" fill="#c5dadc" font-family="Arial, sans-serif" font-size="24" text-anchor="end">KTB + AIS + OR</text>
</svg>
