<svg xmlns="http://www.w3.org/2000/svg" width="960" height="480" viewBox="0 0 960 480" fill="none">
  <defs>
    <linearGradient id="bg" x1="50" y1="38" x2="904" y2="444" gradientUnits="userSpaceOnUse">
      <stop stop-color="#0D1C16"/>
      <stop offset="1" stop-color="#18493B"/>
    </linearGradient>
    <linearGradient id="sun" x1="134" y1="104" x2="382" y2="336" gradientUnits="userSpaceOnUse">
      <stop stop-color="#FAD961"/>
      <stop offset="1" stop-color="#F76B1C"/>
    </linearGradient>
  </defs>
  <rect width="960" height="480" rx="28" fill="url(#bg)"/>
  <g opacity="0.12" stroke="#B9FFD9">
    <path d="M56 92H904"/>
    <path d="M56 156H904"/>
    <path d="M56 220H904"/>
    <path d="M56 284H904"/>
    <path d="M56 348H904"/>
    <path d="M56 412H904"/>
  </g>
  <circle cx="202" cy="198" r="86" fill="url(#sun)"/>
  <path d="M292 198H430" stroke="#B9FFD9" stroke-width="8" stroke-linecap="round"/>
  <path d="M430 198L520 150V246L430 198Z" fill="#B9FFD9"/>
  <g>
    <rect x="120" y="312" width="84" height="72" rx="12" fill="#0F2A22" stroke="#B9FFD9" stroke-width="3"/>
    <rect x="214" y="312" width="84" height="72" rx="12" fill="#0F2A22" stroke="#B9FFD9" stroke-width="3"/>
    <rect x="308" y="312" width="84" height="72" rx="12" fill="#0F2A22" stroke="#B9FFD9" stroke-width="3"/>
    <path d="M140 348H184" stroke="#FAD961" stroke-width="8" stroke-linecap="round"/>
    <path d="M234 348H278" stroke="#FAD961" stroke-width="8" stroke-linecap="round"/>
    <path d="M328 348H372" stroke="#FAD961" stroke-width="8" stroke-linecap="round"/>
  </g>
  <g opacity="0.9">
    <rect x="560" y="120" width="122" height="62" rx="16" fill="#FAD961"/>
    <rect x="700" y="120" width="178" height="62" rx="16" fill="#F76B1C"/>
    <rect x="560" y="206" width="318" height="62" rx="16" fill="#173D31" stroke="#B9FFD9" stroke-width="2"/>
    <rect x="560" y="292" width="318" height="62" rx="16" fill="#173D31" stroke="#B9FFD9" stroke-width="2"/>
  </g>
  <text x="560" y="92" fill="#D9FFEC" font-family="Helvetica, Arial, sans-serif" font-size="20" font-weight="700" letter-spacing="4">HARDWARE / INFRASTRUCTURE</text>
  <text x="560" y="388" fill="white" font-family="Helvetica, Arial, sans-serif" font-size="50" font-weight="800">POWER FOR AI</text>
  <text x="560" y="425" fill="#D9FFEC" font-family="Helvetica, Arial, sans-serif" font-size="22" font-weight="500">1 GW space solar, 100 GWh storage</text>
</svg>
