<svg width="1200" height="630" viewBox="0 0 1200 630" fill="none" xmlns="http://www.w3.org/2000/svg">
  <rect width="1200" height="630" fill="#07111D"/>
  <rect x="30" y="30" width="1140" height="570" rx="30" fill="url(#bg4)"/>
  <rect x="96" y="122" width="228" height="338" rx="18" fill="#0F172A" stroke="#60A5FA" stroke-opacity="0.32"/>
  <rect x="360" y="82" width="180" height="378" rx="18" fill="#111827" stroke="#F59E0B" stroke-opacity="0.32"/>
  <rect x="574" y="148" width="164" height="312" rx="18" fill="#0F172A" stroke="#34D399" stroke-opacity="0.32"/>
  <rect x="770" y="102" width="270" height="358" rx="18" fill="#111827" stroke="#A78BFA" stroke-opacity="0.32"/>
  <rect x="136" y="166" width="42" height="42" rx="8" fill="#38BDF8"/>
  <rect x="194" y="166" width="42" height="42" rx="8" fill="#38BDF8"/>
  <rect x="252" y="166" width="42" height="42" rx="8" fill="#38BDF8"/>
  <rect x="400" y="126" width="96" height="18" rx="9" fill="#FCD34D"/>
  <rect x="610" y="194" width="90" height="18" rx="9" fill="#6EE7B7"/>
  <rect x="810" y="150" width="190" height="20" rx="10" fill="#C4B5FD"/>
  <path d="M210 418C360 332 466 280 636 292C810 304 902 382 1092 316" stroke="#38BDF8" stroke-width="8" stroke-linecap="round" stroke-dasharray="14 12"/>
  <circle cx="210" cy="418" r="12" fill="#38BDF8"/>
  <circle cx="636" cy="292" r="12" fill="#F59E0B"/>
  <circle cx="1092" cy="316" r="12" fill="#34D399"/>
  <text x="96" y="528" fill="#F8FAFC" font-family="Arial, sans-serif" font-size="42" font-weight="700">UOB and Punggol Digital District</text>
  <text x="96" y="570" fill="#BFDBFE" font-family="Arial, sans-serif" font-size="24">Regional talent, AI platforms, and ASEAN deployment</text>
  <defs>
    <linearGradient id="bg4" x1="80" y1="40" x2="1120" y2="590" gradientUnits="userSpaceOnUse">
      <stop stop-color="#0F172A"/>
      <stop offset="0.5" stop-color="#10233B"/>
      <stop offset="1" stop-color="#0B1320"/>
    </linearGradient>
  </defs>
</svg>
