<svg xmlns="http://www.w3.org/2000/svg" width="1200" height="630" viewBox="0 0 1200 630" role="img" aria-labelledby="title desc">
  <title id="title">Helix Digital Infrastructure AI data center platform</title>
  <desc id="desc">A stylized AI data center, power grid, and fiber connectivity system for an article about KKR Helix Digital Infrastructure.</desc>
  <defs>
    <linearGradient id="bg" x1="0" y1="0" x2="1" y2="1">
      <stop offset="0" stop-color="#080b12"/>
      <stop offset="0.48" stop-color="#172033"/>
      <stop offset="1" stop-color="#31230f"/>
    </linearGradient>
    <linearGradient id="rack" x1="0" y1="0" x2="1" y2="1">
      <stop offset="0" stop-color="#1e40af"/>
      <stop offset="1" stop-color="#0891b2"/>
    </linearGradient>
    <linearGradient id="power" x1="0" y1="0" x2="1" y2="0">
      <stop offset="0" stop-color="#f97316"/>
      <stop offset="1" stop-color="#facc15"/>
    </linearGradient>
  </defs>
  <rect width="1200" height="630" fill="url(#bg)"/>
  <path d="M0 505c185-86 312-61 478-24 176 38 340 70 722-50v199H0z" fill="#0f172a" opacity="0.9"/>
  <g opacity="0.18" stroke="#f8fafc" stroke-width="1">
    <path d="M80 86h1040M80 186h1040M80 286h1040M80 386h1040"/>
    <path d="M160 40v480M300 40v480M440 40v480M580 40v480M720 40v480M860 40v480M1000 40v480"/>
  </g>
  <g transform="translate(130 145)">
    <rect x="0" y="70" width="300" height="290" rx="18" fill="#111827" stroke="#38bdf8" stroke-width="5"/>
    <rect x="38" y="112" width="224" height="34" rx="8" fill="url(#rack)"/>
    <rect x="38" y="170" width="224" height="34" rx="8" fill="url(#rack)"/>
    <rect x="38" y="228" width="224" height="34" rx="8" fill="url(#rack)"/>
    <rect x="38" y="286" width="224" height="34" rx="8" fill="url(#rack)"/>
    <g fill="#a7f3d0">
      <circle cx="70" cy="129" r="6"/>
      <circle cx="70" cy="187" r="6"/>
      <circle cx="70" cy="245" r="6"/>
      <circle cx="70" cy="303" r="6"/>
    </g>
    <path d="M150 70V0" stroke="#38bdf8" stroke-width="8" stroke-linecap="round"/>
    <circle cx="150" cy="0" r="30" fill="#0ea5e9"/>
    <path d="M132-2h36M150-20v36" stroke="#e0f2fe" stroke-width="8" stroke-linecap="round"/>
  </g>
  <g transform="translate(565 112)">
    <path d="M165 0l118 76-45 136h-146L47 76z" fill="#1f2937" stroke="#facc15" stroke-width="6"/>
    <path d="M168 52l46 78h-35l20 92-76-112h39z" fill="url(#power)"/>
    <path d="M15 342c80-62 145-62 221 0s141 62 221 0" fill="none" stroke="#f97316" stroke-width="11" stroke-linecap="round"/>
    <path d="M15 392c80-62 145-62 221 0s141 62 221 0" fill="none" stroke="#38bdf8" stroke-width="11" stroke-linecap="round"/>
  </g>
  <g transform="translate(850 175)">
    <rect x="0" y="0" width="230" height="210" rx="22" fill="#101827" stroke="#94a3b8" stroke-width="5"/>
    <g stroke="#7dd3fc" stroke-width="6" fill="none">
      <path d="M54 62h124M54 108h124M54 154h124"/>
    </g>
    <g fill="#facc15">
      <circle cx="54" cy="62" r="10"/>
      <circle cx="178" cy="108" r="10"/>
      <circle cx="54" cy="154" r="10"/>
    </g>
  </g>
  <path d="M430 292C520 188 645 188 735 292C790 356 845 356 900 292" fill="none" stroke="#67e8f9" stroke-width="8" stroke-linecap="round" opacity="0.8"/>
  <g font-family="Inter, Arial, sans-serif" fill="#f8fafc">
    <text x="74" y="86" font-size="28" font-weight="700" letter-spacing="3">HARDWARE / INFRASTRUCTURE</text>
    <text x="74" y="545" font-size="62" font-weight="800">HELIX DIGITAL</text>
    <text x="74" y="596" font-size="35" font-weight="700" fill="#fde68a">$10B FOR AI DATA CENTER + POWER</text>
  </g>
</svg>
