<svg xmlns="http://www.w3.org/2000/svg" width="1200" height="630" viewBox="0 0 1200 630" role="img" aria-labelledby="title desc">
  <title id="title">Vatican AI governance cover</title>
  <desc id="desc">A stylized Vatican dome connected to AI network nodes for an article about an AI encyclical.</desc>
  <rect width="1200" height="630" fill="#f6f0e6"/>
  <rect x="0" y="430" width="1200" height="200" fill="#22324a"/>
  <circle cx="960" cy="130" r="74" fill="#d8ad54" opacity="0.88"/>
  <path d="M190 430h420v-46H190z" fill="#dfd2bd"/>
  <path d="M238 384h324v-38H238z" fill="#ece3d3"/>
  <path d="M292 346c16-96 198-96 214 0z" fill="#b85042"/>
  <path d="M322 346c10-62 144-62 154 0z" fill="#f4efe6"/>
  <rect x="358" y="246" width="84" height="100" fill="#dfd2bd"/>
  <path d="M370 246h60l-30-58z" fill="#b85042"/>
  <rect x="384" y="168" width="32" height="38" fill="#dfd2bd"/>
  <rect x="397" y="132" width="6" height="42" fill="#22324a"/>
  <rect x="384" y="148" width="32" height="6" fill="#22324a"/>
  <g fill="#22324a">
    <rect x="248" y="392" width="32" height="38"/>
    <rect x="324" y="392" width="32" height="38"/>
    <rect x="400" y="392" width="32" height="38"/>
    <rect x="476" y="392" width="32" height="38"/>
  </g>
  <g stroke="#315b68" stroke-width="4" fill="none" opacity="0.7">
    <path d="M650 300 760 220 888 278 1012 206"/>
    <path d="M650 300 804 384 990 330"/>
    <path d="M760 220 804 384"/>
    <path d="M888 278 990 330"/>
  </g>
  <g fill="#f0c35a" stroke="#22324a" stroke-width="5">
    <circle cx="650" cy="300" r="28"/>
    <circle cx="760" cy="220" r="22"/>
    <circle cx="888" cy="278" r="26"/>
    <circle cx="1012" cy="206" r="20"/>
    <circle cx="804" cy="384" r="24"/>
    <circle cx="990" cy="330" r="22"/>
  </g>
  <rect x="658" y="462" width="398" height="4" fill="#f0c35a"/>
  <text x="658" y="520" fill="#ffffff" font-family="Arial, sans-serif" font-size="44" font-weight="700">AI and Human Dignity</text>
  <text x="660" y="562" fill="#d8ad54" font-family="Arial, sans-serif" font-size="25">Vatican News • Anthropic • May 2026</text>
</svg>
