<svg xmlns="http://www.w3.org/2000/svg" width="960" height="480" viewBox="0 0 960 480" fill="none">
  <defs>
    <linearGradient id="bg" x1="40" y1="36" x2="920" y2="446" gradientUnits="userSpaceOnUse">
      <stop stop-color="#10122D"/>
      <stop offset="1" stop-color="#0E5A7D"/>
    </linearGradient>
    <linearGradient id="accent" x1="122" y1="122" x2="372" y2="314" gradientUnits="userSpaceOnUse">
      <stop stop-color="#7AD8FF"/>
      <stop offset="1" stop-color="#8CF8C9"/>
    </linearGradient>
  </defs>
  <rect width="960" height="480" rx="28" fill="url(#bg)"/>
  <g opacity="0.14" stroke="#D7F7FF">
    <path d="M50 90H910"/>
    <path d="M50 152H910"/>
    <path d="M50 214H910"/>
    <path d="M50 276H910"/>
    <path d="M50 338H910"/>
    <path d="M50 400H910"/>
  </g>
  <g>
    <rect x="116" y="118" width="266" height="202" rx="30" fill="#111D3F" stroke="url(#accent)" stroke-width="6"/>
    <circle cx="204" cy="220" r="44" fill="#7AD8FF"/>
    <path d="M182 220L198 236L228 204" stroke="#0B2A44" stroke-width="10" stroke-linecap="round" stroke-linejoin="round"/>
    <rect x="266" y="176" width="76" height="20" rx="10" fill="#8CF8C9"/>
    <rect x="266" y="208" width="92" height="20" rx="10" fill="#7AD8FF"/>
    <rect x="266" y="240" width="58" height="20" rx="10" fill="#E3FBFF"/>
  </g>
  <g opacity="0.95">
    <rect x="462" y="118" width="132" height="50" rx="16" fill="#7AD8FF"/>
    <rect x="610" y="118" width="176" height="50" rx="16" fill="#8CF8C9"/>
    <rect x="462" y="196" width="356" height="48" rx="14" fill="#11304A" stroke="#D7F7FF" stroke-width="2"/>
    <rect x="462" y="266" width="356" height="48" rx="14" fill="#11304A" stroke="#D7F7FF" stroke-width="2"/>
    <rect x="462" y="336" width="356" height="48" rx="14" fill="#11304A" stroke="#D7F7FF" stroke-width="2"/>
  </g>
  <text x="462" y="86" fill="#DDFBFF" font-family="Helvetica, Arial, sans-serif" font-size="20" font-weight="700" letter-spacing="4">GAMES / CONSUMER</text>
  <text x="462" y="372" fill="white" font-family="Helvetica, Arial, sans-serif" font-size="44" font-weight="800">PS PLUS MAY 2026</text>
  <text x="462" y="410" fill="#DDFBFF" font-family="Helvetica, Arial, sans-serif" font-size="24" font-weight="500">lineup cadence still drives console attention</text>
</svg>
