<svg xmlns="http://www.w3.org/2000/svg" width="960" height="480" viewBox="0 0 960 480" fill="none">
  <defs>
    <linearGradient id="bg" x1="52" y1="34" x2="906" y2="440" gradientUnits="userSpaceOnUse">
      <stop stop-color="#08121F"/>
      <stop offset="1" stop-color="#123F53"/>
    </linearGradient>
    <linearGradient id="beam" x1="132" y1="108" x2="356" y2="326" gradientUnits="userSpaceOnUse">
      <stop stop-color="#7AF7D7"/>
      <stop offset="1" stop-color="#5DB9FF"/>
    </linearGradient>
  </defs>
  <rect width="960" height="480" rx="28" fill="url(#bg)"/>
  <g opacity="0.14" stroke="#D5F6FF">
    <path d="M52 96H908"/>
    <path d="M52 156H908"/>
    <path d="M52 216H908"/>
    <path d="M52 276H908"/>
    <path d="M52 336H908"/>
    <path d="M52 396H908"/>
  </g>
  <g>
    <rect x="112" y="106" width="268" height="226" rx="26" fill="#0A1E30" stroke="url(#beam)" stroke-width="6"/>
    <path d="M156 150H336" stroke="#7AF7D7" stroke-width="8" stroke-linecap="round"/>
    <path d="M156 206H336" stroke="#5DB9FF" stroke-width="8" stroke-linecap="round"/>
    <path d="M156 262H292" stroke="#D9FBFF" stroke-width="8" stroke-linecap="round"/>
    <circle cx="318" cy="262" r="18" fill="#7AF7D7"/>
    <path d="M246 118V320" stroke="#123F53" stroke-width="2" stroke-dasharray="8 8"/>
  </g>
  <g opacity="0.96">
    <rect x="456" y="118" width="146" height="52" rx="16" fill="#7AF7D7"/>
    <rect x="618" y="118" width="166" height="52" rx="16" fill="#5DB9FF"/>
    <rect x="456" y="196" width="360" height="48" rx="14" fill="#102E44" stroke="#C9F5FF" stroke-width="2"/>
    <rect x="456" y="266" width="360" height="48" rx="14" fill="#102E44" stroke="#C9F5FF" stroke-width="2"/>
    <rect x="456" y="336" width="360" height="48" rx="14" fill="#102E44" stroke="#C9F5FF" stroke-width="2"/>
  </g>
  <text x="456" y="86" fill="#DDFBFF" font-family="Helvetica, Arial, sans-serif" font-size="20" font-weight="700" letter-spacing="4">GLOBAL / AI</text>
  <text x="456" y="372" fill="white" font-family="Helvetica, Arial, sans-serif" font-size="48" font-weight="800">DEEPSEEK V4</text>
  <text x="456" y="410" fill="#DDFBFF" font-family="Helvetica, Arial, sans-serif" font-size="24" font-weight="500">1M context, open models, agent pressure</text>
</svg>
