<svg width="1200" height="675" viewBox="0 0 1200 675" fill="none" xmlns="http://www.w3.org/2000/svg">
  <rect width="1200" height="675" fill="#071018"/>
  <rect x="56" y="56" width="1088" height="563" rx="28" fill="#111827"/>
  <rect x="132" y="132" width="936" height="278" rx="22" fill="#0F172A" stroke="#475569" stroke-width="4"/>
  <rect x="184" y="184" width="190" height="176" rx="16" fill="#1E293B"/>
  <rect x="418" y="184" width="190" height="176" rx="16" fill="#1E293B"/>
  <rect x="652" y="184" width="190" height="176" rx="16" fill="#1E293B"/>
  <rect x="886" y="184" width="130" height="176" rx="16" fill="#1E293B"/>
  <path d="M246 266C352 214 454 214 558 266C664 318 760 318 872 266C930 240 978 236 1028 248" stroke="#38BDF8" stroke-width="14" stroke-linecap="round"/>
  <path d="M246 304C352 356 454 356 558 304C664 252 760 252 872 304C930 330 978 334 1028 322" stroke="#22C55E" stroke-width="14" stroke-linecap="round"/>
  <path d="M246 228C352 176 454 176 558 228C664 280 760 280 872 228C930 202 978 198 1028 210" stroke="#F59E0B" stroke-width="10" stroke-linecap="round"/>
  <circle cx="246" cy="266" r="24" fill="#E0F2FE"/>
  <circle cx="558" cy="266" r="24" fill="#E0F2FE"/>
  <circle cx="872" cy="266" r="24" fill="#E0F2FE"/>
  <circle cx="1028" cy="248" r="18" fill="#E0F2FE"/>
  <rect x="214" y="440" width="140" height="42" rx="12" fill="#0369A1"/>
  <rect x="392" y="440" width="140" height="42" rx="12" fill="#15803D"/>
  <rect x="570" y="440" width="140" height="42" rx="12" fill="#B45309"/>
  <rect x="748" y="440" width="140" height="42" rx="12" fill="#7C3AED"/>
  <path d="M214 520H888" stroke="#64748B" stroke-width="6" stroke-linecap="round" stroke-dasharray="18 18"/>
  <text x="94" y="575" fill="#F8FAFC" font-family="Arial, sans-serif" font-size="48" font-weight="700">EBO Optical MSA</text>
  <text x="94" y="621" fill="#BAE6FD" font-family="Arial, sans-serif" font-size="25">open physical-layer standards for AI data centers</text>
</svg>
